<?xml version="1.0" encoding="UTF-8"?>
<!DOCTYPE svg PUBLIC "-//W3C//DTD SVG 1.1//EN" "http://www.w3.org/Graphics/SVG/1.1/DTD/svg11.dtd">
<!-- Creator: CorelDRAW X8 -->
<svg xmlns="http://www.w3.org/2000/svg" xml:space="preserve" width="99.343mm" height="135.46mm" version="1.1" style="shape-rendering:geometricPrecision; text-rendering:geometricPrecision; image-rendering:optimizeQuality; fill-rule:evenodd; clip-rule:evenodd"
viewBox="0 0 9934 13546"
 xmlns:xlink="http://www.w3.org/1999/xlink"
 enable-background="new 0 0 44 60">
 <defs>
  <style type="text/css">
   <![CDATA[
    .fil0 {fill:#FEFEFE}
   ]]>
  </style>
 </defs>
 <g id="Camada_x0020_1">
  <metadata id="CorelCorpID_0Corel-Layer"/>
  <g id="_1843784141216">
   <path class="fil0" d="M3612 8579l-2257 0c-89,0 -169,-51 -206,-132l-1129 -2484c-29,-64 -27,-137 7,-199l1779 -3337 0 -170c0,-373 304,-677 677,-677 374,0 678,304 678,677l0 170 1779 3337c33,61 36,135 7,199l-1129 2484c-37,81 -117,132 -206,132l0 0zm-2112 -451l1967 0 1022 -2250 -1753 -3288c-18,-33 -27,-70 -27,-107l0 -226c0,-124 -101,-225 -226,-225 -124,0 -225,101 -225,225l0 226c0,37 -10,74 -27,107l-1754 3288 1023 2250z"/>
   <path class="fil0" d="M2483 8579c-124,0 -225,-101 -225,-226l0 -1580c0,-125 101,-226 225,-226 125,0 226,101 226,226l0 1580c0,125 -101,226 -226,226z"/>
   <path class="fil0" d="M2483 5193c-124,0 -225,-102 -225,-226l0 -1581c0,-124 101,-225 225,-225 125,0 226,101 226,225l0 1581c0,124 -101,226 -226,226z"/>
   <path class="fil0" d="M2483 6999c-57,0 -115,-22 -159,-66l-903 -903c-89,-89 -89,-231 0,-320l903 -903c88,-88 231,-88 319,0l903 903c88,89 88,231 0,320l-903 903c-44,44 -102,66 -160,66l0 0zm-583 -1129l583 584 584 -584 -584 -584 -583 584z"/>
   <path class="fil0" d="M3612 9482l-2257 0c-125,0 -226,-101 -226,-225l0 -904c0,-124 101,-225 226,-225l2257 0c125,0 226,101 226,225l0 904c0,124 -101,225 -226,225l0 0zm-2032 -451l1807 0 0 -452 -1807 0 0 452z"/>
   <path class="fil0" d="M4741 13546l-4515 0c-65,0 -127,-28 -170,-76 -43,-49 -62,-114 -54,-178l521 -4064c14,-113 110,-197 224,-197l3473 0c114,0 210,84 224,197l521 4064c9,64 -11,129 -54,178 -43,48 -105,76 -170,76l0 0zm-4259 -451l4003 0 -463 -3613 -3077 0 -463 3613z"/>
   <path class="fil0" d="M5870 4967c-29,0 -58,-6 -86,-17 -85,-35 -140,-118 -140,-209l0 -1129 -225 0c-249,0 -452,-203 -452,-452l0 -2708c0,-250 203,-452 452,-452l4063 0c249,0 452,202 452,452l0 2708c0,249 -203,452 -452,452l-2164 0 -1288 1289c-43,43 -101,66 -160,66l0 0zm-451 -4516l0 2709 451 1c125,0 226,101 226,225l0 810 969 -969c42,-43 100,-66 160,-66l2257 0 1 -2710 -4064 0z"/>
   <path class="fil0" d="M8128 2032l-1355 0c-124,0 -226,-101 -226,-226 0,-125 102,-226 226,-226l1355 0c125,0 226,101 226,226 0,125 -101,226 -226,226z"/>
   <path class="fil0" d="M4567 12192l-4168 0c-65,0 -126,-28 -169,-77 -43,-49 -63,-113 -54,-178l173 -1354c14,-113 110,-198 224,-198l3821 0c113,0 209,85 224,198l173 1354c9,65 -11,129 -54,178 -43,49 -105,77 -170,77l0 0zm-3911 -452l3655 0 -116 -903 -3423 0 -116 903z"/>
  </g>
 </g>
</svg>
