<svg height="496pt" viewBox="0 0 496 496" width="496pt" xmlns="http://www.w3.org/2000/svg"><path d="m456 384h-184.839844c-.902344-3.542969-2.535156-6.886719-4.945312-9.695312l-44.152344-51.503907c-1.511719-1.785156-3.726562-2.800781-6.0625-2.800781h-88v-8c0-4.414062-3.574219-8-8-8h-112c-4.425781 0-8 3.585938-8 8v176c0 4.414062 3.574219 8 8 8h64c4.425781 0 8-3.585938 8-8v-8h40c4.425781 0 8-3.585938 8-8v-8h53.574219l45.984375 30.65625c1.328125.878906 2.875 1.34375 4.441406 1.34375.566406 0 1.144531-.0625 1.710938-.183594l256-56c3.671874-.808594 6.289062-4.054687 6.289062-7.816406v-8c0-22.054688-17.945312-40-40-40zm-392 96h-48v-160h48zm48-16h-32v-144h32zm368-38.441406-246.390625 53.898437-45.167969-30.113281c-1.3125-.871094-2.867187-1.34375-4.441406-1.34375h-56v-112h84.320312l41.757813 48.710938c1.234375 1.449218 1.921875 3.296874 1.921875 5.199218v10.089844c0 4.40625-3.585938 8-8 8h-9.375c-2.105469 0-4.167969-.855469-5.65625-2.34375l-35.3125-35.3125-11.3125 11.3125 35.3125 35.3125c4.527344 4.535156 10.558594 7.03125 16.96875 7.03125h9.375c13.230469 0 24-10.769531 24-24h184c13.230469 0 24 10.769531 24 24zm0 0"/><path d="m488 0h-48c-4.425781 0-8 3.585938-8 8v8h-272c-13.230469 0-24 10.769531-24 24s10.769531 24 24 24h96v80c0 2.121094.839844 4.160156 2.34375 5.65625l27.3125 27.3125c4.527344 4.535156 10.558594 7.03125 16.96875 7.03125h1.375c13.230469 0 24-10.769531 24-24v-1.367188c0-6.410156-2.496094-12.441406-7.03125-16.976562l-16.96875-16.96875v-52.6875c0-4.40625 3.585938-8 8-8h48c4.414062 0 8 3.59375 8 8v52.6875l-16.96875 16.96875c-4.535156 4.527344-7.03125 10.558594-7.03125 16.976562v1.367188c0 13.230469 10.769531 24 24 24h1.375c6.410156 0 12.441406-2.496094 16.96875-7.03125l27.3125-27.3125c1.503906-1.496094 2.34375-3.535156 2.34375-5.65625v-80h16v56c0 4.414062 3.574219 8 8 8h48c4.425781 0 8-3.585938 8-8v-112c0-4.414062-3.574219-8-8-8zm-80 48c-4.425781 0-8 3.585938-8 8v84.6875l-24.96875 24.96875c-1.496094 1.488281-3.550781 2.34375-5.65625 2.34375h-1.375c-4.414062 0-8-3.59375-8-8v-1.367188c0-2.136718.832031-4.152343 2.34375-5.664062l19.3125-19.3125c1.503906-1.496094 2.34375-3.535156 2.34375-5.65625v-56c0-13.230469-10.769531-24-24-24h-48c-13.230469 0-24 10.769531-24 24v56c0 2.121094.839844 4.160156 2.34375 5.65625l19.3125 19.3125c1.511719 1.511719 2.34375 3.527344 2.34375 5.664062v1.367188c0 4.40625-3.585938 8-8 8h-1.375c-2.105469 0-4.167969-.855469-5.65625-2.34375l-24.96875-24.96875v-84.6875c0-4.414062-3.574219-8-8-8h-104c-4.414062 0-8-3.59375-8-8s3.585938-8 8-8h272v16zm72 64h-32v-96h32zm0 0"/><path d="m328 168v32h-56c-4.425781 0-8 3.585938-8 8v98.335938c0 21.34375 11.855469 40.535156 30.953125 50.089843l37.472656 18.734375c1.117188.558594 2.351563.839844 3.574219.839844s2.457031-.28125 3.574219-.839844l37.472656-18.734375c19.097656-9.554687 30.953125-28.746093 30.953125-50.089843v-98.335938c0-4.414062-3.574219-8-8-8h-56v-32zm-48 138.335938v-90.335938h48v17.472656c-9.289062 3.3125-16 12.113282-16 22.527344v16c0 13.230469 10.769531 24 24 24 4.414062 0 8 3.59375 8 8v16c0 4.40625-3.585938 8-8 8s-8-3.59375-8-8v-8h-16v8c0 10.414062 6.710938 19.214844 16 22.527344v12.527344l-25.886719-12.941407c-13.640625-6.816406-22.113281-20.527343-22.113281-35.777343zm112-90.335938v90.335938c0 15.25-8.472656 28.960937-22.113281 35.777343l-25.886719 12.941407v-12.527344c9.289062-3.3125 16-12.113282 16-22.527344v-16c0-13.230469-10.769531-24-24-24-4.414062 0-8-3.59375-8-8v-16c0-4.40625 3.585938-8 8-8s8 3.59375 8 8v8h16v-8c0-10.414062-6.710938-19.214844-16-22.527344v-17.472656zm0 0"/></svg>