<?xml version="1.0" encoding="UTF-8"?>
<!DOCTYPE svg PUBLIC "-//W3C//DTD SVG 1.1//EN" "http://www.w3.org/Graphics/SVG/1.1/DTD/svg11.dtd">
<!-- Creator: CorelDRAW X8 -->
<svg xmlns="http://www.w3.org/2000/svg" xml:space="preserve" width="119.16mm" height="135.46mm" version="1.1" style="shape-rendering:geometricPrecision; text-rendering:geometricPrecision; image-rendering:optimizeQuality; fill-rule:evenodd; clip-rule:evenodd"
viewBox="0 0 11916 13546"
 xmlns:xlink="http://www.w3.org/1999/xlink">
 <defs>
  <style type="text/css">
   <![CDATA[
    .fil0 {fill:#171745}
   ]]>
  </style>
 </defs>
 <g id="Camada_x0020_1">
  <metadata id="CorelCorpID_0Corel-Layer"/>
  <g id="_1843784098816">
   <g>
    <g>
     <path class="fil0" d="M11916 4l-1270 951 -1278 2978 -1027 0 -403 -874 263 0c482,0 874,-388 874,-870l0 -878 437 0 0 -1311 -1311 0 0 1311 437 0 0 878c0,241 -196,433 -437,433l-465 0 -558 -1209 669 -333 -2191 -938 -515 1802c-14,-1072 -889,-1940 -1965,-1940 -1084,0 -1966,882 -1966,1966 0,655 331,1270 874,1633l0 330 -530 0 -34 179c-106,550 -115,1117 -29,1681l-1491 2657 1647 376 0 2754 2184 0 0 1966 5244 0 0 -3045c1529,-1081 2403,-2821 2401,-4677l1 -797c0,-300 -28,-609 -84,-913l-32 -181 -429 0 984 -2356 0 -1573zm-3278 874l0 -437 437 0 0 437 -437 0zm-778 3055l-829 0 -397 -874 822 0 404 874zm-1920 -3193l868 371 -205 101 652 1410 -820 0 -532 -1169 -196 99 233 -812zm611 3193l-972 0 0 -433c0,-241 196,-441 437,-441l138 0 0 0 397 874zm-858 -1884l265 583c-455,31 -815,406 -815,868l0 433 -874 0 0 -330c437,-293 733,-750 834,-1259l590 -295zm-4046 -78c0,-843 686,-1530 1529,-1530 843,0 1529,687 1529,1530 0,542 -293,1049 -765,1323l-109 63 0 576 -436 0 0 -1348c253,-90 436,-331 436,-615 0,-361 -294,-655 -655,-655 -361,0 -655,294 -655,655 0,284 183,525 437,615l0 1348 -437 0 0 -576 -109 -63c-472,-274 -765,-781 -765,-1323zm1529 218c-121,0 -218,-98 -218,-218 0,-121 97,-219 218,-219 121,0 219,98 219,219 0,120 -98,218 -219,218zm7817 2181c32,218 48,439 48,655l1 798c1,1751 -863,3390 -2308,4385l-96 66 0 2835 -4369 0 0 -1966 -2185 0 0 -2665 -1417 -323 1279 -2281 -12 -78c-81,-478 -86,-989 -15,-1426l165 0 2185 0 6724 0zm-535 -437l-615 0 1090 -2540 484 242 -959 2298zm1020 -2753l-241 -121 241 -181 0 302z"/>
     <path class="fil0" d="M3613 5680c-362,0 -655,-218 -655,-655l-437 0c0,655 490,1093 1092,1093 603,0 1092,-438 1092,-1093l-436 0c0,437 -295,655 -656,655z"/>
    </g>
   </g>
  </g>
 </g>
</svg>
