<?xml version="1.0" encoding="UTF-8"?>
<!DOCTYPE svg PUBLIC "-//W3C//DTD SVG 1.1//EN" "http://www.w3.org/Graphics/SVG/1.1/DTD/svg11.dtd">
<!-- Creator: CorelDRAW X8 -->
<svg xmlns="http://www.w3.org/2000/svg" xml:space="preserve" width="135.47mm" height="135.46mm" version="1.1" style="shape-rendering:geometricPrecision; text-rendering:geometricPrecision; image-rendering:optimizeQuality; fill-rule:evenodd; clip-rule:evenodd"
viewBox="0 0 13547 13546"
 xmlns:xlink="http://www.w3.org/1999/xlink"
 enable-background="new 0 0 60 60">
 <defs>
  <style type="text/css">
   <![CDATA[
    .fil0 {fill:#FEFEFE}
   ]]>
  </style>
 </defs>
 <g id="Camada_x0020_1">
  <metadata id="CorelCorpID_0Corel-Layer"/>
  <g id="_1843784174512">
   <path class="fil0" d="M2032 13546c-1120,0 -2032,-911 -2032,-2032l0 -11289c0,-124 102,-225 226,-225l3613 0c124,0 225,101 225,225l0 11289c0,1121 -911,2032 -2032,2032l0 0zm-1580 -13095l0 11063c0,872 709,1581 1580,1581 872,0 1581,-709 1581,-1581l0 -11063 -3161 0z"/>
   <path class="fil0" d="M2032 12643c-622,0 -1128,-506 -1128,-1129 0,-622 506,-1129 1128,-1129 623,0 1129,507 1129,1129 0,623 -506,1129 -1129,1129zm0 -1806c-373,0 -677,304 -677,677 0,374 304,678 677,678 374,0 678,-304 678,-678 0,-373 -304,-677 -678,-677z"/>
   <path class="fil0" d="M2936 3161l-1807 0c-124,0 -225,-102 -225,-226l0 -1806c0,-125 101,-226 225,-226l1807 0c124,0 225,101 225,226l0 1806c0,124 -101,226 -225,226zm-1581 -452l1355 0 0 -1355 -1355 0 0 1355z"/>
   <path class="fil0" d="M2936 6096l-1807 0c-124,0 -225,-101 -225,-226l0 -1806c0,-125 101,-226 225,-226l1807 0c124,0 225,101 225,226l0 1806c0,125 -101,226 -225,226zm-1581 -452l1355 0 0 -1355 -1355 0 0 1355z"/>
   <path class="fil0" d="M2936 9031l-1807 0c-124,0 -225,-101 -225,-226l0 -1806c0,-125 101,-226 225,-226l1807 0c124,0 225,101 225,226l0 1806c0,125 -101,226 -225,226zm-1581 -452l1355 0 0 -1354 -1355 0 0 1354z"/>
   <path class="fil0" d="M12418 12643l-1806 0c-125,0 -226,-101 -226,-226l0 -1806c0,-124 101,-226 226,-226l1806 0c125,0 226,102 226,226l0 1806c0,125 -101,226 -226,226zm-1580 -451l1354 0 0 -1355 -1354 0 0 1355z"/>
   <path class="fil0" d="M9483 12643l-1806 0c-125,0 -226,-101 -226,-226l0 -1806c0,-124 101,-226 226,-226l1806 0c125,0 226,102 226,226l0 1806c0,125 -101,226 -226,226zm-1580 -451l1354 0 0 -1355 -1354 0 0 1355z"/>
   <path class="fil0" d="M6548 12643l-1806 0c-125,0 -226,-101 -226,-226l0 -1806c0,-124 101,-226 226,-226l1806 0c125,0 226,102 226,226l0 1806c0,125 -101,226 -226,226zm-1580 -451l1354 0 0 -1355 -1354 0 0 1355z"/>
   <path class="fil0" d="M8738 6315c-60,0 -118,-24 -160,-66l-1277 -1277c-88,-89 -88,-231 0,-320l1277 -1277c88,-88 231,-88 319,0l1278 1277c88,89 88,231 0,320l-1278 1277c-42,42 -99,66 -159,66l0 0zm-958 -1503l958 958 958 -958 -958 -958 -958 958z"/>
   <path class="fil0" d="M6662 8390c-60,0 -117,-23 -159,-66l-1278 -1277c-88,-88 -88,-231 0,-319l1278 -1278c88,-88 231,-88 319,0l1277 1278c88,88 88,231 0,319l-1277 1277c-42,43 -100,66 -160,66l0 0zm-958 -1503l958 958 958 -958 -958 -958 -958 958z"/>
   <path class="fil0" d="M13321 13546l-11289 0c-124,0 -225,-101 -225,-225 0,-125 101,-226 225,-226 872,0 1581,-709 1581,-1581l0 -1806c0,-125 101,-226 226,-226l9482 0c125,0 226,101 226,226l0 3613c0,124 -101,225 -226,225zm-10013 -451l9788 0 0 -3161 -9032 0 0 1580c0,638 -295,1208 -756,1581l0 0z"/>
   <path class="fil0" d="M6396 9934l-2557 0c-125,0 -226,-101 -226,-226l0 -2552c0,-59 24,-117 66,-159l4899 -4899c88,-88 231,-88 319,0l2555 2554c42,42 66,100 66,160 0,59 -24,117 -66,159l-4897 4897c-42,42 -99,66 -159,66l0 0zm-2332 -452l2238 0 4671 -4670 -2235 -2235 -4673 4673 -1 2232z"/>
  </g>
 </g>
</svg>
