<?xml version="1.0" encoding="UTF-8"?>
<!DOCTYPE svg PUBLIC "-//W3C//DTD SVG 1.1//EN" "http://www.w3.org/Graphics/SVG/1.1/DTD/svg11.dtd">
<!-- Creator: CorelDRAW X8 -->
<svg xmlns="http://www.w3.org/2000/svg" xml:space="preserve" width="135.46mm" height="135.46mm" version="1.1" style="shape-rendering:geometricPrecision; text-rendering:geometricPrecision; image-rendering:optimizeQuality; fill-rule:evenodd; clip-rule:evenodd"
viewBox="0 0 13546 13546"
 xmlns:xlink="http://www.w3.org/1999/xlink">
 <defs>
  <style type="text/css">
   <![CDATA[
    .fil0 {fill:#FEFEFE}
   ]]>
  </style>
 </defs>
 <g id="Camada_x0020_1">
  <metadata id="CorelCorpID_0Corel-Layer"/>
  <g id="_1843784213936">
   <circle class="fil0" cx="1748" cy="4151" r="219"/>
   <circle class="fil0" cx="2622" cy="4151" r="219"/>
   <circle class="fil0" cx="3496" cy="4151" r="219"/>
   <path class="fil0" d="M1529 12017l2812 0 -2812 -2647 0 2647zm437 -1636l1273 1199 -1273 0 0 -1199z"/>
   <path class="fil0" d="M13546 1311l0 -1311 -1311 0 0 437 -4369 0 0 -437 -1312 0 0 1311 1312 0 0 -437 738 0c-707,470 -1176,1273 -1176,2185l-6117 0c-361,0 -656,294 -656,655l0 2737c-198,-168 -365,-127 -430,-99 -68,29 -225,129 -225,421l0 6118c0,361 294,655 655,655l6555 0c286,0 385,-141 418,-226 34,-84 59,-255 -149,-451l-209 -197 5621 0c361,0 655,-294 655,-655l0 -8303c0,-361 -294,-655 -655,-655l-219 0c0,-912 -468,-1715 -1176,-2185l739 0 0 437 1311 0 0 0zm-874 -874l437 0 0 437 -437 0 0 -437zm-5244 437l-436 0 0 -437 436 0 0 437zm-6335 2840c0,-120 98,-218 218,-218l6155 0c0,1 2,2 4,3 83,492 304,942 633,1308l-7010 0 0 -1093zm-438 9395l0 0c-120,0 -218,-98 -218,-218l0 -219 437 0 0 -437 -437 0 0 -437 437 0 0 -437 -437 0 0 -437 437 0 0 -437 -437 0 0 -437 437 0 0 -437 -437 0 0 -437 437 0 0 -437 -437 0 0 -437 437 0 0 -436 -437 0 0 -1025 2286 2152 659 620 3714 3496 -6441 0zm1311 -5428l0 -1563 4807 0 0 3058 -3217 0 -1590 -1495zm11143 4336c0,120 -98,218 -218,218l-6086 0 -2786 -2622 3191 0 0 -3933 -5681 0 0 1590 -436 -412 0 -1614 7521 0c42,27 81,58 125,83l0 247c-131,100 -218,257 -218,434 0,124 43,236 112,328 -69,92 -112,204 -112,328 0,301 245,546 546,546l1967 0c301,0 546,-245 546,-546 0,-124 -43,-236 -112,-328 69,-91 112,-204 112,-327 0,-178 -87,-335 -219,-434l0 -248c44,-25 83,-56 125,-83l1623 0 0 6773zm-4042 -5463l1967 0c60,0 109,49 109,110 0,60 -49,109 -109,109l-1967 0c-60,0 -109,-49 -109,-109 0,-61 49,-110 109,-110zm-109 -546c0,-60 49,-109 109,-109l1967 0c60,0 109,49 109,109 0,61 -49,110 -109,110l-1967 0c-60,0 -109,-49 -109,-110zm3677 -2512l256 0c120,0 218,98 218,218l0 1093 -1112 0c323,-358 541,-797 628,-1277 4,-11 8,-21 10,-34zm-400 -437c0,823 -456,1568 -1192,1944l-118 61 0 398 -656 0 0 -1560c376,-98 656,-437 656,-843 0,-482 -393,-874 -875,-874 -482,0 -874,392 -874,874 0,406 280,745 656,843l0 1560 -656 0 0 -398 -118 -61c-736,-376 -1192,-1121 -1192,-1944 0,-1205 980,-2185 2184,-2185 1205,0 2185,980 2185,2185zm-2185 437c-241,0 -437,-196 -437,-437 0,-241 196,-437 437,-437 241,0 437,196 437,437 0,241 -196,437 -437,437z"/>
   <rect class="fil0" x="7647" y="7866" width="5025" height="437"/>
   <rect class="fil0" x="7647" y="8739" width="5025" height="437"/>
   <rect class="fil0" x="7647" y="9613" width="5025" height="437"/>
   <rect class="fil0" x="7647" y="10487" width="5025" height="437"/>
  </g>
 </g>
</svg>
