<?xml version="1.0" encoding="UTF-8"?>
<!DOCTYPE svg PUBLIC "-//W3C//DTD SVG 1.1//EN" "http://www.w3.org/Graphics/SVG/1.1/DTD/svg11.dtd">
<!-- Creator: CorelDRAW X8 -->
<svg xmlns="http://www.w3.org/2000/svg" xml:space="preserve" width="52.46mm" height="17.34mm" version="1.1" style="shape-rendering:geometricPrecision; text-rendering:geometricPrecision; image-rendering:optimizeQuality; fill-rule:evenodd; clip-rule:evenodd"
viewBox="0 0 5246 1734"
 xmlns:xlink="http://www.w3.org/1999/xlink">
 <defs>
  <style type="text/css">
   <![CDATA[
    .str0 {stroke:#FEFEFE;stroke-width:5.72}
    .fil5 {fill:#FEFEFE}
    .fil3 {fill:#FEFEFE}
    .fil6 {fill:#D2D3D5}
    .fil4 {fill:#A9ABAE}
    .fil2 {fill:#A9ABAE}
    .fil1 {fill:white}
    .fil7 {fill:#FEFEFE;fill-rule:nonzero}
    .fil0 {fill:#A9ABAE;fill-rule:nonzero}
    .fil8 {fill:#54ABC6;fill-rule:nonzero}
    .fil9 {fill:white;fill-rule:nonzero}
   ]]>
  </style>
 </defs>
 <g id="Camada_x0020_1">
  <metadata id="CorelCorpID_0Corel-Layer"/>
  <path id="Shape" class="fil0" d="M1127 777l-1058 0c-38,0 -69,-30 -69,-68l0 -640c0,-38 31,-69 69,-69l1057 0c38,0 69,31 69,69l0 639c1,38 -31,69 -68,69z"/>
  <polygon class="fil1" points="438,513 514,263 582,263 506,513 "/>
  <path class="fil1" d="M408 263l-61 106c-15,27 -24,42 -29,59l-1 0c1,-22 -2,-49 -2,-64l-7 -100 -113 0 -1 7c29,0 47,15 51,45l22 199 71 0 141 -250 -71 0 0 -2z"/>
  <path class="fil1" d="M934 513l-2 -38 -84 0 -18 38 -73 0 133 -250 90 0 22 250 -68 0 0 0zm-8 -148c-1,-19 -1,-43 0,-59l-1 0c-4,13 -22,50 -29,68l-26 54 60 0 -4 -63 0 0z"/>
  <path class="fil1" d="M652 519c-48,0 -79,-14 -101,-28l32 -49c20,12 36,25 73,25 12,0 24,-3 29,-15 10,-17 -2,-25 -28,-40l-13 -9c-39,-26 -55,-52 -37,-97 12,-28 43,-50 94,-50 35,0 68,16 88,31l-37 43c-19,-16 -34,-23 -53,-23 -15,0 -25,6 -28,13 -7,14 2,23 22,36l16 10c48,30 59,62 47,91 -22,52 -62,62 -104,62l0 0z"/>
  <path id="Shape_0" class="fil2" d="M2484 777l-1058 0c-38,0 -68,-30 -68,-68l0 -640c0,-38 30,-69 68,-69l1057 0c38,0 69,31 69,69l0 640c1,37 -31,68 -68,68z"/>
  <path class="fil3" d="M1865 388c0,-75 35,-142 90,-186 -41,-33 -92,-52 -148,-52 -131,0 -237,106 -237,237 0,131 106,238 237,238 56,0 107,-20 148,-52 -55,-41 -90,-108 -90,-185z"/>
  <path class="fil4" d="M1865 388c0,76 35,143 90,187 54,-44 90,-110 90,-187 0,-75 -36,-142 -90,-186 -55,44 -90,111 -90,186z"/>
  <path class="fil3" d="M2102 151c-55,0 -106,19 -147,52 54,44 90,110 90,186 0,76 -36,143 -90,187 41,32 92,52 147,52 131,0 238,-107 238,-238 1,-133 -106,-239 -238,-239z"/>
  <path id="Shape_1" class="fil2" d="M5176 1727l-1057 0c-38,0 -68,-30 -68,-68l0 -640c0,-38 30,-69 68,-69l1057 0c38,0 69,31 69,69l0 640c0,37 -31,68 -69,68z"/>
  <path class="fil1" d="M4637 1209l0 258c52,-19 89,-70 89,-129 0,-58 -37,-109 -89,-129z"/>
  <path class="fil1" d="M4698 1101l-112 0c-132,0 -239,97 -239,240 0,130 108,237 239,236l112 0c130,1 250,-107 250,-236 0,-143 -119,-240 -250,-240zm-111 455c-120,0 -218,-98 -218,-218 0,-120 98,-218 218,-218 120,0 218,98 218,218 0,120 -97,218 -218,218z"/>
  <path class="fil1" d="M4449 1338c0,59 37,109 89,129l0 -258c-52,20 -89,71 -89,129z"/>
  <path id="Shape_2" class="fil0" d="M1126 1728l-1057 0c-38,0 -69,-31 -69,-69l0 -640c0,-38 31,-68 69,-68l1057 0c38,0 69,30 69,68l0 639c0,38 -31,70 -69,70z"/>
  <path class="fil1" d="M741 1367c-3,25 27,22 37,12 8,-8 10,-23 12,-33 -24,-3 -47,1 -49,21z"/>
  <path class="fil1" d="M411 1319c-2,8 -3,17 -4,26 -2,8 -5,17 -4,26 2,20 29,20 40,8 9,-10 17,-33 14,-53 -3,-21 -35,-20 -46,-7z"/>
  <path class="fil1" d="M385 1133c-32,0 -97,0 -97,0 -43,2 -78,20 -89,55 -5,19 -8,39 -13,59 -21,99 -40,199 -59,296l759 0c58,0 98,-13 109,-59 5,-21 10,-46 15,-70 18,-93 38,-186 57,-281l-682 0zm-21 129c2,-2 4,-4 8,-4 5,-1 8,0 10,1 5,4 1,18 -3,20 -3,2 -12,4 -16,0 -4,-4 -2,-14 1,-17zm-68 135c3,-23 8,-46 12,-68 -19,-2 -43,-1 -62,0 -5,22 -8,46 -12,69l-23 0c8,-45 16,-92 24,-138l22 0c-3,18 -6,37 -10,55 20,2 42,1 63,0 3,-18 7,-37 10,-55l23 0c-9,45 -17,91 -24,138l-23 0 0 -1zm44 0c6,-31 12,-63 17,-97 0,-1 0,-1 0,-1l21 0c-7,32 -13,65 -18,98l-20 0zm108 -3c-13,7 -43,11 -48,-7 -4,17 -6,36 -9,54l-20 0c9,-47 17,-94 25,-143l18 0c0,3 -1,6 -1,8 0,0 0,0 0,0 9,-7 30,-15 48,-8 34,14 13,83 -13,96zm125 -49c-22,-1 -45,-1 -67,0 -4,14 -3,31 7,38 13,9 37,2 50,-3 -1,6 -2,11 -3,16 -33,8 -74,9 -77,-23 -3,-24 6,-49 18,-60 9,-9 21,-13 36,-14 17,-1 33,2 38,15 3,8 -1,20 -2,31zm36 -11c-7,18 -8,44 -11,63l-20 0c6,-32 13,-64 18,-98l18 0c-1,6 -2,11 -3,16 7,-11 21,-24 39,-16 -1,5 -2,9 -2,14 -20,-7 -33,6 -39,21zm98 60c-26,9 -60,8 -67,-16 -6,-21 2,-54 16,-68 14,-14 40,-17 68,-12 -1,6 -2,10 -2,16 -17,-6 -38,-8 -49,3 -8,8 -13,25 -14,38 0,6 0,14 2,19 7,17 34,13 49,5 -1,6 -2,11 -3,15zm101 -43c-3,16 -5,29 -5,46l-18 0c0,-5 1,-10 1,-15 -9,13 -33,23 -53,14 -10,-4 -15,-20 -10,-36 6,-24 35,-30 69,-26 2,-4 4,-10 2,-16 -4,-15 -41,-7 -54,-4 1,-6 3,-10 4,-16 25,-1 68,-10 69,16 1,12 -2,25 -5,37zm37 11c-2,13 -5,23 -5,36l-21 0c7,-32 13,-64 18,-98l18 0c-1,5 -1,10 -2,15 5,-9 20,-24 39,-15 -1,4 -2,9 -3,14 -34,-9 -39,21 -44,48zm120 35l-19 0c0,-5 1,-9 2,-14 0,-1 -3,3 -4,5 -2,2 -4,5 -6,6 -14,9 -41,7 -51,-3 -6,-6 -7,-15 -7,-24 -1,-46 30,-82 80,-66 3,-14 6,-30 7,-44l20 0c-7,46 -19,90 -22,140z"/>
  <path class="fil1" d="M933 1309c-23,3 -34,31 -33,55 0,14 7,23 21,23 32,-1 29,-46 36,-74 -7,-3 -14,-5 -24,-4z"/>
  <path class="fil1" d="M535 1309c-16,1 -25,13 -27,24l48 0c4,-19 -5,-25 -21,-24z"/>
  <path id="Shape_3" class="fil4" d="M1357 944l1193 0 2 372c-143,-54 -602,-185 -1194,-22l0 -350 -1 0z"/>
  <path id="Shape_4" class="fil4" d="M1357 1734l1193 0 0 -298c-215,-72 -598,-179 -1193,-27l0 325z"/>
  <path id="Shape_5" class="fil5" d="M2551 1436c-215,-73 -598,-180 -1193,-28l0 -115c592,-163 1051,-32 1194,22l-1 121z"/>
  <path id="Shape_6" class="fil6" d="M1737 1223c30,-82 97,-152 215,-151 118,1 196,67 217,155 -151,-14 -252,-17 -432,-4z"/>
  <path id="Shape_7" class="fil7 str0" d="M1624 1582l80 -119 29 0 85 119 -31 0 -24 -36 -87 0 -23 36 -29 0 0 0zm61 -49l70 0 -22 -33c-6,-10 -11,-19 -14,-24 -3,7 -7,15 -12,22l-22 35 0 0zm274 49l0 -13c-12,10 -27,15 -48,15 -9,0 -17,-1 -24,-3 -8,-2 -14,-5 -18,-8 -4,-3 -7,-7 -8,-10 -1,-3 -2,-8 -2,-14l0 -54 26 0 0 48c0,8 1,13 2,16 2,4 5,7 10,8 4,2 11,3 19,3 8,0 15,-1 22,-3 6,-1 11,-4 14,-8 3,-4 4,-10 4,-17l0 -46 26 0 0 86 -23 0 0 0zm84 0l0 -86 23 0 0 13c5,-6 11,-10 16,-12 5,-2 11,-3 17,-3 9,0 17,2 26,5l-9 14c-5,-2 -12,-3 -18,-3 -6,0 -11,1 -15,3 -5,2 -8,5 -10,8 -3,4 -3,10 -3,16l0 45 -27 0 0 0zm218 -10c-10,5 -19,8 -27,10 -9,2 -19,3 -29,3 -16,0 -29,-2 -38,-7 -9,-5 -13,-11 -13,-17 0,-4 2,-8 4,-12 3,-4 8,-6 13,-9 6,-2 12,-4 19,-5 5,-1 12,-2 22,-2 21,-1 36,-3 46,-5 0,-2 0,-3 0,-4 0,-5 -2,-9 -7,-12 -7,-3 -16,-5 -29,-5 -12,0 -21,1 -26,4 -6,2 -10,7 -13,12l-26 -1c2,-6 6,-11 11,-15 5,-4 13,-7 23,-9 9,-2 21,-3 34,-3 13,0 23,1 31,3 8,2 14,4 18,7 4,3 7,6 8,10 1,3 1,7 1,13l0 20c0,14 1,22 1,25 1,4 3,7 7,11l-26 0c-1,-5 -3,-8 -4,-12l0 0zm-2 -33c-10,2 -23,4 -42,6 -11,1 -18,2 -22,3 -4,1 -8,3 -10,5 -2,2 -4,4 -4,7 0,4 3,6 8,9 5,3 12,4 22,4 10,0 19,-1 27,-4 7,-3 13,-5 16,-9 3,-3 4,-8 4,-15l0 -6 1 0z"/>
  <path id="Shape_8" class="fil2" d="M3841 777l-1058 0c-38,0 -68,-30 -68,-68l0 -640c0,-38 30,-69 68,-69l1058 0c38,0 68,31 68,69l0 639c0,38 -30,69 -68,69z"/>
  <path class="fil3" d="M3003 298c10,-2 20,-4 30,-4 46,0 84,32 93,76l66 -14c-15,-73 -80,-129 -159,-129 -17,0 -35,3 -50,8l20 63z"/>
  <path class="fil3" d="M2926 510l44 -50c-20,-18 -32,-43 -32,-72 0,-28 12,-53 32,-71l-44 -49c-33,30 -55,73 -55,121 1,47 22,90 55,121z"/>
  <path class="fil3" d="M3126 408c-9,43 -47,76 -93,76 -10,0 -20,-2 -30,-5l-21 63c15,6 33,8 50,8 79,0 143,-56 159,-129l-65 -13z"/>
  <path class="fil3" d="M3408 452c-11,11 -26,17 -41,17 -11,0 -22,-4 -31,-9l-21 34c14,10 32,15 51,15 27,0 51,-11 70,-29l-28 -28z"/>
  <path class="fil3" d="M3369 312c-55,-1 -99,43 -100,97 0,20 6,39 16,56l177 -77c-9,-43 -48,-75 -93,-76l0 0zm-60 105c0,-2 0,-5 0,-7 1,-32 26,-58 59,-57 17,0 33,8 43,21l-102 43z"/>
  <path class="fil3" d="M3518 268l0 190 33 14 -15 37 -33 -14c-7,-3 -12,-8 -15,-14 -4,-6 -6,-13 -6,-23l0 -190 36 0z"/>
  <path class="fil3" d="M3637 356c6,-2 12,-3 19,-3 28,0 52,20 57,46l40 -8c-9,-45 -49,-79 -97,-79 -11,0 -22,2 -31,5l12 39z"/>
  <path class="fil3" d="M3590 484l27 -30c-12,-11 -20,-26 -20,-43 0,-18 8,-32 20,-43l-27 -31c-20,17 -33,44 -33,73 0,30 13,57 33,74z"/>
  <path class="fil3" d="M3713 423c-6,26 -29,46 -57,46 -7,0 -13,-1 -19,-3l-12 38c9,3 20,5 31,5 48,0 87,-35 97,-79l-40 -7z"/>
  <path id="Shape_9" class="fil0" d="M3841 1727l-1058 0c-38,0 -68,-30 -68,-68l0 -640c0,-38 30,-69 68,-69l1058 0c38,0 68,31 68,69l0 640c0,37 -30,68 -68,68z"/>
  <path class="fil7" d="M2902 1126l45 0 0 188 -45 0 0 -188zm860 0l25 0 0 424 -25 0 0 -424zm-29 0l13 0 0 188 -13 0 0 -188zm-20 0l14 0 0 188 -14 0 0 -188zm-49 0l25 0 0 188 -25 0 0 -188zm-27 0l15 0 0 188 -15 0 0 -188zm-58 0l45 0 0 188 -45 0 0 -188zm-58 0l25 0 0 188 -25 0 0 -188zm31 0l14 0 0 188 -14 0 0 -188zm-52 0l13 0 0 188 -13 0 0 -188zm-20 0l15 0 0 188 -15 0 0 -188zm-64 0l26 0 0 188 -26 0 0 -188zm32 0l13 0 0 188 -13 0 0 -188zm-52 0l13 0 0 188 -13 0 0 -188zm-20 0l14 0 0 188 -14 0 0 -188zm-49 0l25 0 0 188 -25 0 0 -188zm-250 0l26 0 0 188 -26 0 0 -188zm32 0l13 0 0 188 -13 0 0 -188zm189 0l13 0 0 188 -13 0 0 -188zm-19 0l13 0 0 188 -13 0 0 -188zm-50 0l25 0 0 188 -25 0 0 -188zm-27 0l15 0 0 188 -15 0 0 -188zm-59 0l46 0 0 188 -46 0 0 -188zm-306 0l24 0 0 424 -24 0 0 -424zm30 0l15 0 0 424 -15 0 0 -424zm191 0l13 0 0 188 -13 0 0 -188zm-21 0l14 0 0 188 -14 0 0 -188zm-50 0l26 0 0 188 -26 0 0 -188zm-25 0l14 0 0 188 -14 0 0 -188z"/>
  <path class="fil7" d="M2904 1542l0 -215 82 0c16,0 29,1 39,6 9,4 17,11 23,21 6,9 9,18 9,28 0,9 -3,18 -8,27 -5,7 -13,14 -22,19 12,4 23,11 30,20 7,9 11,19 11,32 0,10 -2,20 -7,28 -4,9 -10,16 -16,20 -6,5 -14,8 -23,11 -10,2 -22,4 -36,4l-82 0 0 -1zm29 -125l47 0c12,0 21,-1 27,-2 7,-2 13,-6 17,-11 4,-5 5,-12 5,-19 0,-7 -1,-14 -4,-18 -3,-6 -8,-9 -15,-11 -7,-2 -18,-3 -32,-3l-43 0 0 64 -2 0zm0 100l53 0c9,0 16,0 20,-1 7,-1 12,-3 17,-6 5,-3 7,-7 10,-11 3,-5 4,-12 4,-19 0,-8 -2,-15 -6,-21 -3,-5 -9,-9 -17,-12 -7,-2 -18,-4 -31,-4l-50 0 0 74 0 0z"/>
  <path class="fil7" d="M3093 1464c0,-28 8,-49 24,-63 14,-12 30,-18 49,-18 22,0 39,7 53,22 14,13 21,33 21,57 0,20 -3,37 -9,47 -6,12 -15,21 -27,27 -11,7 -24,9 -37,9 -21,0 -39,-6 -52,-20 -16,-15 -22,-35 -22,-61l0 0zm26 0c0,20 4,36 13,45 9,10 20,15 33,15 13,0 25,-5 34,-15 8,-9 12,-25 12,-46 0,-19 -5,-34 -12,-44 -9,-9 -20,-14 -33,-14 -13,0 -24,5 -33,14 -9,10 -14,25 -14,45l0 0z"/>
  <polygon class="fil7" points="3269,1542 3269,1327 3295,1327 3295,1542 "/>
  <path class="fil7" d="M3442 1492l27 4c-4,15 -12,28 -23,37 -12,9 -27,12 -45,12 -23,0 -41,-6 -54,-21 -14,-14 -19,-33 -19,-59 0,-26 6,-47 20,-60 14,-15 31,-22 53,-22 20,0 38,7 51,22 12,13 19,34 19,59 0,2 0,4 0,7l-116 0c1,17 6,30 15,39 8,9 19,14 32,14 10,0 17,-3 24,-8 7,-5 12,-14 16,-24l0 0zm-86 -43l87 0c-1,-13 -5,-23 -10,-30 -9,-9 -19,-15 -32,-15 -12,0 -23,4 -30,11 -9,9 -14,21 -15,34l0 0z"/>
  <path class="fil7" d="M3560 1518l4 24c-8,2 -14,2 -20,2 -9,0 -16,-2 -22,-5 -5,-3 -9,-7 -11,-12 -2,-5 -3,-16 -3,-31l0 -90 -19 0 0 -20 19 0 0 -38 27 -16 0 55 26 0 0 21 -26 0 0 91c0,7 0,12 1,14 1,2 2,4 5,5 1,1 4,2 8,2 2,-1 6,-1 11,-2l0 0z"/>
  <path class="fil7" d="M3577 1464c0,-28 8,-49 24,-63 14,-12 29,-18 49,-18 21,0 39,7 53,22 13,13 20,33 20,57 0,20 -3,37 -9,47 -5,12 -14,21 -26,27 -12,7 -24,9 -37,9 -22,0 -39,-6 -53,-20 -14,-15 -21,-35 -21,-61l0 0zm26 0c0,20 4,36 13,45 9,10 19,15 33,15 13,0 24,-5 33,-15 9,-9 13,-25 13,-46 0,-19 -5,-34 -13,-44 -9,-9 -19,-14 -32,-14 -14,0 -24,5 -33,14 -9,10 -14,25 -14,45l0 0z"/>
  <polygon id="Shape_10" class="fil8" points="4050,287 4055,287 4055,275 "/>
  <polygon id="Shape_11" class="fil9" points="4134,168 4110,223 4157,223 "/>
  <rect id="Rectangle-path" class="fil1" x="4051" y="151" width="1194" height="525"/>
  <path id="Shape_12" class="fil4" d="M5201 503l-19 0c-5,0 -9,-1 -13,-2 -4,-2 -7,-5 -7,-10 0,-5 2,-8 5,-11 3,-2 7,-2 13,-2l62 0 0 -30 -68 0c-35,0 -48,23 -48,42 0,45 39,42 71,44 6,0 9,1 11,3 2,2 4,6 4,10 0,4 -2,7 -4,9 -2,2 -6,2 -12,2l-65 0 0 31 65 0c25,0 42,-8 49,-24l0 -41c-2,-4 -4,-7 -6,-9 -7,-8 -19,-12 -38,-12z"/>
  <path id="Shape_13" class="fil4" d="M5070 503l-19 0c-5,0 -9,-1 -13,-2 -4,-2 -6,-5 -6,-10 0,-5 1,-8 4,-11 3,-2 7,-2 13,-2l62 0 0 -30 -68 0c-36,0 -48,23 -48,42 0,45 39,42 71,44 6,0 10,1 11,3 2,2 4,6 4,10 0,4 -2,7 -4,9 -2,2 -6,2 -12,2l-65 0 0 31 65 0c34,0 54,-14 54,-44 0,-14 -4,-24 -10,-30 -8,-8 -21,-12 -39,-12z"/>
  <polygon id="Shape_14" class="fil4" points="4868,589 4980,589 4980,559 4902,559 4902,531 4979,531 4979,503 4902,503 4902,477 4980,477 4980,448 4868,448 "/>
  <path id="Shape_15" class="fil4" d="M4849 486c0,-16 -6,-25 -17,-31 -11,-6 -24,-7 -41,-7l-77 0 0 141 34 0 0 -52 36 0c12,0 19,1 25,6 6,7 6,18 6,28l0 17 33 0 0 -28c0,-12 -1,-18 -5,-25 -3,-4 -9,-10 -18,-12 9,-3 24,-15 24,-37zm-44 20c-5,2 -10,2 -17,2l-41 1 0 -33 41 0c6,0 12,0 17,3 4,2 7,6 7,12 0,7 -3,12 -7,15z"/>
  <path id="Shape_16" class="fil4" d="M4642 448l-108 0 -43 46 -41 -46 -136 0 0 141 134 0 43 -46 41 46 65 0 0 -47 42 0c28,0 57,-8 57,-47 1,-39 -28,-47 -54,-47zm-211 111l-83 0 0 -28 74 0 0 -28 -74 0 0 -26 84 0 37 41 -38 41zm133 17l-51 -59 51 -54 0 113zm78 -63l-45 0 0 -36 45 0c11,0 19,5 19,17 0,12 -8,19 -19,19z"/>
  <path id="Shape_17" class="fil2" d="M4842 346l39 0 13 -31 70 0 13 31 68 0 0 -105 64 105 48 0 0 -140 -35 0 0 97 -58 -97 -52 0 0 133 -57 -133 -49 0 -48 110 -16 0c-9,0 -19,-2 -23,-7 -6,-8 -9,-18 -9,-33 0,-15 3,-25 9,-32 6,-6 13,-8 26,-8l32 0 0 -30 -32 0c-24,0 -41,5 -51,16 -16,16 -17,34 -18,55 0,25 5,41 17,54 12,11 32,15 49,15zm87 -116l23 56 -46 0 23 -56z"/>
  <rect id="Rectangle-path_18" class="fil4" x="4725" y="206" width="34.2" height="140.75"/>
  <path id="Shape_19" class="fil4" d="M4604 296l36 0c11,0 19,1 25,5 6,8 5,20 5,28l0 17 34 0 0 -27c0,-12 -1,-19 -6,-25 -3,-4 -8,-9 -16,-12 10,-4 24,-16 24,-37 0,-17 -7,-26 -17,-33 -11,-5 -24,-5 -40,-5l-78 0 0 140 34 0 0 -51 -1 0zm0 -61l41 0c5,0 12,0 16,2 4,3 6,7 6,13 0,5 -2,10 -6,12 -5,3 -10,3 -16,3l-41 0 0 -30z"/>
  <polygon id="Shape_20" class="fil4" points="4547,317 4468,317 4468,289 4546,289 4546,260 4468,260 4468,235 4547,235 4547,206 4435,206 4435,346 4547,346 "/>
  <path id="Shape_21" class="fil4" d="M4096 315l71 0 12 31 69 0 0 -110 49 110 28 0 49 -110 0 110 34 0 0 -140 -55 0 -41 95 -44 -95 -53 0 0 133 -58 -133 -50 0 -56 131 0 9 33 0 12 -31zm36 -85l23 56 -47 0 24 -56z"/>
  <path id="Shape_22" class="fil2" d="M5184 422l62 0 0 -362c-5,-33 -34,-60 -68,-60l-1057 0c-38,0 -69,31 -69,69l0 201 40 -90 87 0 11 24 0 -24 102 0 23 50 23 -50 325 0c16,0 29,3 38,11l0 -11 90 0 0 11c15,-9 34,-11 56,-11l129 0 12 24 0 -24 94 0 14 24 0 -24 93 0 0 197 -94 0 -18 -31 0 31 -118 0 -12 -33 -29 0 -12 33 -62 0c-24,0 -42,-6 -54,-12l0 12 -145 0 0 -45c0,-6 -1,-7 -5,-7l-5 0 0 53 -281 0 0 -26 -9 26 -60 0 -10 -25 0 25 -113 0 -12 -33 -28 0 -13 33 -57 0 0 332c0,38 31,68 69,68l1057 0c35,0 64,-26 68,-59l0 -108c-13,6 -32,9 -49,9l-87 0 0 -12c-10,8 -29,12 -45,12l-275 0 0 -45c0,-6 -1,-6 -6,-6l-5 0 0 52 -90 0 0 -54c-16,8 -33,8 -47,8l-10 0 0 46 -111 0 -26 -30 -28 30 -177 0 0 -197 181 0 25 30 28 -30 122 0c13,0 37,2 46,11l0 -11 109 0c11,0 32,2 46,11l0 -11 163 0 0 11c10,-7 26,-11 41,-11l91 0 0 11c10,-7 23,-13 42,-13z"/>
 </g>
</svg>
