<?xml version="1.0" encoding="utf-8"?>
<!-- Generator: Adobe Illustrator 16.0.0, SVG Export Plug-In . SVG Version: 6.00 Build 0)  -->
<!DOCTYPE svg PUBLIC "-//W3C//DTD SVG 1.1//EN" "http://www.w3.org/Graphics/SVG/1.1/DTD/svg11.dtd">
<svg version="1.1" id="Camada_1" xmlns="http://www.w3.org/2000/svg" xmlns:xlink="http://www.w3.org/1999/xlink" x="0px" y="0px"
	 width="340.16px" height="340.16px" viewBox="0 0 340.16 340.16" enable-background="new 0 0 340.16 340.16" xml:space="preserve">
<g>
	<g>
		<g opacity="0.6">
			<path fill="#F76363" d="M179.932,274.255c0,0-1.764-0.074-5.07-0.214c-0.911-0.08-1.928-0.169-3.048-0.267
				c-1.119-0.1-2.351-0.198-3.602-0.399c-1.268-0.188-2.635-0.354-4.083-0.601c-1.442-0.279-2.975-0.576-4.593-0.89
				c-6.44-1.398-14.132-3.802-22.389-7.767c-8.25-3.952-16.984-9.636-25.214-17.256c-8.168-7.664-15.775-17.331-21.495-28.779
				c-5.734-11.416-9.518-24.605-10.384-38.446c-0.897-13.825,1.075-28.268,6.182-41.826c5.091-13.551,13.343-26.063,23.788-36.253
				c10.501-10.136,23.18-17.939,36.695-22.56c13.508-4.637,27.773-6.125,41.156-4.851c13.508,1.253,26.114,5.307,36.945,11.154
				c10.852,5.835,19.876,13.4,26.943,21.396c7.021,8.06,12.152,16.495,15.646,24.39c3.504,7.902,5.543,15.188,6.672,21.261
				c1.144,6.081,1.396,10.938,1.585,14.231c0.037,3.302,0.057,5.063,0.057,5.063s-0.074-1.758-0.214-5.054
				c-0.291-3.282-0.693-8.114-2.017-14.119c-1.309-5.997-3.558-13.152-7.255-20.836c-3.686-7.677-8.991-15.805-16.096-23.465
				c-7.148-7.599-16.16-14.674-26.817-19.983c-10.619-5.323-22.917-8.828-35.749-9.617c-12.919-0.824-26.33,1.032-38.926,5.789
				c-12.587,4.745-24.209,12.433-33.677,22.153c-9.411,9.777-16.65,21.567-20.923,34.119c-4.287,12.545-5.657,25.78-4.456,38.257
				c1.176,12.499,4.952,24.214,10.388,34.247c5.425,10.061,12.459,18.43,19.886,24.981c7.49,6.505,15.318,11.257,22.64,14.484
				c7.33,3.237,14.08,5.122,19.709,6.16c1.413,0.229,2.75,0.443,4.009,0.646c1.262,0.175,2.454,0.277,3.557,0.408
				c1.118,0.147,2.097,0.188,3,0.239c0.902,0.057,1.724,0.107,2.458,0.152c3.29,0.036,5.046,0.056,5.046,0.056l0.018,0.001
				c3.866,0.042,6.966,3.211,6.923,7.078c-0.043,3.866-3.212,6.966-7.078,6.923C180.087,274.26,179.994,274.257,179.932,274.255z"/>
		</g>
		<g opacity="0.9">
			<path fill="#F76363" d="M180.097,267.757c0,0-1.76-0.049-5.06-0.141c-3.317-0.245-8.186-0.58-14.257-1.826
				c-6.064-1.231-13.318-3.395-21.145-7.021c-7.819-3.616-16.133-8.867-24.019-15.97c-7.824-7.147-15.165-16.212-20.748-27.016
				c-5.596-10.774-9.375-23.279-10.386-36.497c-1.038-13.199,0.654-27.081,5.381-40.169c4.711-13.087,12.493-25.264,22.458-35.262
				c10.021-9.943,22.209-17.692,35.293-22.371c13.084-4.693,26.953-6.351,40.121-5.287c13.194,1.038,25.657,4.836,36.39,10.44
				c10.762,5.591,19.78,12.929,26.885,20.741c7.061,7.874,12.271,16.166,15.855,23.96c3.594,7.801,5.73,15.026,6.942,21.063
				c1.227,6.046,1.549,10.891,1.786,14.179c0.084,3.299,0.129,5.059,0.129,5.059s-0.049-1.759-0.141-5.058
				c-0.244-3.287-0.577-8.131-1.816-14.171c-1.225-6.032-3.376-13.248-6.984-21.033c-3.597-7.778-8.821-16.048-15.887-23.894
				c-7.111-7.783-16.129-15.086-26.876-20.64c-10.718-5.566-23.158-9.326-36.305-10.33c-13.135-1.033-26.942,0.652-39.961,5.354
				c-13.019,4.687-25.131,12.428-35.078,22.341c-9.891,9.969-17.601,22.094-22.253,35.11c-4.668,13.016-6.317,26.811-5.257,39.914
				c1.032,13.122,4.812,25.521,10.386,36.196c5.562,10.705,12.862,19.677,20.633,26.745c7.833,7.022,16.083,12.207,23.835,15.771
				c7.76,3.575,14.947,5.7,20.953,6.905c6.015,1.222,10.835,1.54,14.093,1.776c3.299,0.084,5.058,0.129,5.058,0.129
				c0.276,0.007,0.495,0.235,0.488,0.512c-0.006,0.275-0.235,0.494-0.511,0.488H180.097z"/>
		</g>
		<g opacity="0.6">
			<path fill="#76E5DE" d="M262.354,136.024c0,0,0.571,1.463,1.643,4.208c0.253,0.75,0.536,1.587,0.848,2.509
				c0.311,0.922,0.661,1.931,0.94,3.006c0.296,1.081,0.644,2.233,0.955,3.478c0.283,1.252,0.584,2.583,0.902,3.988
				c1.145,5.645,1.925,12.646,1.655,20.654c-0.262,7.998-1.742,16.999-4.953,26.285c-3.27,9.251-8.344,18.766-15.52,27.398
				c-7.145,8.632-16.405,16.33-27.233,21.92c-10.804,5.608-23.132,9.133-35.862,9.818c-12.72,0.697-25.736-1.521-37.669-6.337
				c-11.908-4.881-22.718-12.352-31.258-21.639c-8.552-9.276-14.832-20.285-18.571-31.594c-3.792-11.378-5.004-23.053-4.123-33.926
				c0.863-10.888,3.784-20.92,7.757-29.522c4.041-8.587,9.066-15.778,14.24-21.447c5.177-5.68,10.379-9.95,14.922-13.045
				c4.544-3.11,8.412-5.057,11.029-6.392c2.678-1.214,4.107-1.861,4.107-1.861s-1.413,0.679-4.063,1.951
				c-2.584,1.392-6.4,3.42-10.854,6.616c-4.453,3.18-9.527,7.54-14.527,13.277c-4.999,5.726-9.8,12.941-13.587,21.475
				c-3.72,8.549-6.358,18.449-6.964,29.091c-0.629,10.617,0.825,21.972,4.716,32.838c3.884,10.924,10.162,21.341,18.553,30.055
				c8.377,8.714,18.852,15.598,30.255,19.98c11.43,4.317,23.768,6.127,35.698,5.207c11.932-0.908,23.401-4.478,33.342-9.922
				c9.967-5.43,18.368-12.749,24.781-20.857c6.441-8.109,10.903-16.96,13.712-25.496c2.747-8.571,3.913-16.807,3.988-24.08
				c0.081-7.282-0.764-13.603-1.913-18.683c-0.315-1.264-0.615-2.46-0.896-3.586c-0.307-1.118-0.646-2.152-0.934-3.122
				c-0.276-0.984-0.598-1.83-0.881-2.614c-0.281-0.785-0.537-1.498-0.766-2.137c-1.127-2.708-1.729-4.153-1.729-4.153l-0.004-0.011
				c-0.945-2.271,0.129-4.878,2.4-5.824s4.879,0.129,5.824,2.401C262.326,135.956,262.344,136,262.354,136.024z"/>
		</g>
		<g>
			<path fill="#76E5DE" d="M259.151,137.32c0,0,0.583,1.456,1.676,4.187c0.986,2.83,2.443,6.955,3.58,12.391
				c1.147,5.426,1.952,12.163,1.756,19.89c-0.189,7.717-1.548,16.421-4.579,25.43c-3.091,8.975-7.928,18.231-14.818,26.661
				c-6.861,8.429-15.789,15.98-26.283,21.508c-10.469,5.545-22.464,9.087-34.885,9.858c-12.414,0.783-25.167-1.276-36.905-5.898
				c-11.712-4.688-22.392-11.931-30.869-20.996c-8.489-9.059-14.768-19.837-18.564-30.997c-3.831-11.18-5.136-22.73-4.353-33.504
				c0.763-10.792,3.574-20.774,7.449-29.355c3.942-8.567,8.881-15.767,13.987-21.458c5.108-5.703,10.261-10.007,14.769-13.136
				c4.509-3.144,8.357-5.122,10.961-6.479c2.667-1.236,4.09-1.896,4.09-1.896s-1.419,0.667-4.08,1.916
				c-2.597,1.37-6.433,3.367-10.922,6.529c-4.488,3.147-9.611,7.473-14.68,13.188c-5.067,5.704-9.955,12.909-13.841,21.464
				c-3.818,8.569-6.566,18.521-7.271,29.258c-0.727,10.715,0.633,22.195,4.486,33.259c3.828,11.074,10.106,21.72,18.56,30.652
				c8.441,8.937,19.045,16.047,30.644,20.623c11.625,4.511,24.226,6.479,36.462,5.646c12.241-0.821,24.045-4.374,34.319-9.882
				c10.301-5.492,19.035-12.958,25.732-21.27c6.726-8.313,11.425-17.42,14.412-26.233c2.928-8.849,4.215-17.381,4.362-24.936
				c0.154-7.563-0.665-14.147-1.813-19.447c-1.139-5.313-2.587-9.336-3.542-12.049c-1.105-2.722-1.695-4.174-1.695-4.174
				c-0.209-0.511,0.035-1.095,0.547-1.304c0.511-0.209,1.095,0.036,1.304,0.547L259.151,137.32z"/>
		</g>
	</g>
	<g>
		<radialGradient id="SVGID_1_" cx="176.2432" cy="173.915" r="100.1712" gradientUnits="userSpaceOnUse">
			<stop  offset="0" style="stop-color:#2B125D"/>
			<stop  offset="1" style="stop-color:#011121"/>
		</radialGradient>
		<path opacity="0.5" fill="url(#SVGID_1_)" d="M278.451,86.325c-0.888-4.799-3.564-7.475-4.367-8.185
			c-1.188-1.395-2.95-2.322-5.042-2.307l-16.253,0.12l0,0l-62.486,0.459c-5.462,0.04-10.548,2.785-13.579,7.327L75.193,245.634
			c-0.879,1.317-1.203,2.785-1.084,4.189c-0.849,7.487,5.146,10.717,5.146,10.717s73.348,10.156,85.015,11.348
			c11.667,1.19,17.016-7.616,17.016-7.616S279.5,91.993,278.451,86.325z"/>
		<g>
			
				<linearGradient id="SVGID_2_" gradientUnits="userSpaceOnUse" x1="73.8008" y1="179.7646" x2="292.9766" y2="179.7646" gradientTransform="matrix(-0.9833 0.182 0.182 0.9833 326.2065 -27.8073)">
				<stop  offset="0" style="stop-color:#76E5DE"/>
				<stop  offset="1" style="stop-color:#52468A"/>
			</linearGradient>
			<path fill="url(#SVGID_2_)" d="M268.758,82.943c0,0,3.37,2.576,4.364,7.949s-92.099,168.668-92.099,168.668
				s-5.071,8.347-16.129,7.218c-11.058-1.129-80.581-10.756-80.581-10.756s-5.875-3.146-4.851-10.48
				C85.263,239.705,268.758,82.943,268.758,82.943z"/>
			
				<linearGradient id="SVGID_3_" gradientUnits="userSpaceOnUse" x1="75.6011" y1="169.2539" x2="292.4951" y2="169.2539" gradientTransform="matrix(-0.9833 0.182 0.182 0.9833 326.2065 -27.8073)">
				<stop  offset="0" style="stop-color:#F7F7E1"/>
				<stop  offset="1" style="stop-color:#F76363"/>
			</linearGradient>
			<path fill="url(#SVGID_3_)" d="M264.203,80.947l-74.634,0.548c-5.177,0.038-9.997,2.64-12.871,6.945L80.462,241.894
				c-2.564,3.843-0.213,9.044,4.366,9.656l78.471,10.498c6.274,0.839,12.434-2.192,15.595-7.677l90.765-164.061
				C272.069,86.129,269.029,80.911,264.203,80.947z"/>
			<g>
				
					<path fill="none" stroke="#52468A" stroke-width="0.7141" stroke-linecap="round" stroke-linejoin="round" stroke-miterlimit="10" d="
					M117.255,254.173c2.221,0.319,5.111-1.668,6.455-4.437c1.343-2.77,0.632-5.272-1.589-5.591c-2.221-0.32-5.111,1.667-6.454,4.437
					C114.323,251.351,115.034,253.854,117.255,254.173z"/>
			</g>
			
				<line fill="none" stroke="#52468A" stroke-width="2" stroke-linecap="round" stroke-linejoin="round" stroke-miterlimit="10" x1="226.98" y1="87.622" x2="227.651" y2="87.622"/>
			
				<line fill="none" stroke="#52468A" stroke-width="2" stroke-linecap="round" stroke-linejoin="round" stroke-miterlimit="10" x1="207.156" y1="87.619" x2="224.452" y2="87.621"/>
			<linearGradient id="SVGID_4_" gradientUnits="userSpaceOnUse" x1="114.0142" y1="237.6338" x2="294.4016" y2="47.6002">
				<stop  offset="0" style="stop-color:#76E5DE"/>
				<stop  offset="1" style="stop-color:#0E1879"/>
			</linearGradient>
			<polygon fill="url(#SVGID_4_)" points="177.918,92.633 263.727,93.028 176.732,249.24 86.945,238.071 			"/>
			<g opacity="0.15">
				<path fill="#FFFFFF" d="M248.797,81.06l-59.228,0.435c-5.177,0.038-9.997,2.64-12.871,6.945L80.462,241.894
					c-2.564,3.843-0.213,9.044,4.366,9.656l78.471,10.498l-63.916-8.551C130.442,219.811,220.158,111.173,248.797,81.06z"/>
				<path fill="#FFFFFF" d="M170.158,261.434c-0.723,0.232-1.464,0.414-2.219,0.54C168.694,261.848,169.435,261.666,170.158,261.434
					z"/>
				<path fill="#FFFFFF" d="M175.141,258.751c1.485-1.191,2.767-2.666,3.754-4.38l90.765-164.061l-90.765,164.061
					C177.907,256.085,176.626,257.56,175.141,258.751z"/>
				<path fill="#FFFFFF" d="M173.266,260.042c-0.654,0.384-1.335,0.719-2.038,1.003
					C171.931,260.761,172.611,260.426,173.266,260.042z"/>
			</g>
			<g>
				<path fill="#7FDDFD" d="M178.895,254.371c0,0,2.056-3.778,5.652-10.39c3.604-6.607,8.754-16.046,14.933-27.373
					c12.437-22.61,29.02-52.757,45.603-82.904c4.182-7.517,8.363-15.033,12.479-22.433c4.101-7.398,8.208-14.682,12.052-21.726
					c0.782-1.705,0.641-3.8-0.335-5.395c-0.941-1.628-2.701-2.684-4.526-2.822c-3.816-0.057-7.66,0.017-11.342,0.018
					c-7.392,0.037-14.381,0.071-20.832,0.102c-12.902,0.076-23.654,0.026-31.182,0.044c-7.526,0.002-11.827,0.003-11.827,0.003
					s4.301-0.062,11.826-0.171c7.526-0.093,18.277-0.301,31.179-0.415c6.451-0.063,13.439-0.131,20.831-0.204
					c3.71-0.019,7.463-0.114,11.403-0.071c2.04,0.142,4.028,1.325,5.091,3.141c1.098,1.788,1.29,4.124,0.392,6.102
					c-3.845,7.13-7.891,14.385-11.962,21.818c-4.082,7.418-8.228,14.955-12.374,22.492c-16.729,30.065-33.459,60.132-46.006,82.681
					c-6.313,11.253-11.573,20.63-15.256,27.194C181.003,250.622,178.895,254.371,178.895,254.371z"/>
			</g>
		</g>
	</g>
	<g>
		<circle fill="#FFFFFF" cx="288.165" cy="85.306" r="1.109"/>
		<circle fill="#FFFFFF" cx="267.617" cy="50.819" r="1.109"/>
		<circle fill="#FFFFFF" cx="297.085" cy="67.023" r="1.997"/>
		<circle fill="#FFFFFF" cx="270.936" cy="66.514" r="0.555"/>
		<circle fill="#FFFFFF" cx="278.054" cy="108.765" r="0.555"/>
		<circle fill="#FFFFFF" cx="254.982" cy="73.317" r="0.555"/>
		<circle fill="#FFFFFF" cx="275.567" cy="76.359" r="0.278"/>
		<circle fill="#FFFFFF" cx="294.996" cy="57.78" r="0.277"/>
		<circle fill="#FFFFFF" cx="257.543" cy="65.627" r="0.277"/>
		<circle fill="#FFFFFF" cx="290.911" cy="74.279" r="0.277"/>
		<circle fill="#FFFFFF" cx="308.787" cy="47.288" r="0.555"/>
	</g>
	<g>
		<circle fill="#FFFFFF" cx="70.736" cy="241.877" r="1.11"/>
		<circle fill="#FFFFFF" cx="38.889" cy="249.743" r="1.11"/>
		<circle fill="#FFFFFF" cx="63.37" cy="262.628" r="0.555"/>
		<circle fill="#FFFFFF" cx="46.138" cy="232.113" r="0.555"/>
		<circle fill="#FFFFFF" cx="86.043" cy="262.405" r="0.555"/>
		<circle fill="#FFFFFF" cx="62.793" cy="229.304" r="0.277"/>
		<circle fill="#FFFFFF" cx="52.852" cy="248.593" r="0.278"/>
		<circle fill="#FFFFFF" cx="72.421" cy="214.549" r="0.277"/>
		<circle fill="#FFFFFF" cx="24.65" cy="267.309" r="0.277"/>
		<circle fill="#FFFFFF" cx="77.793" cy="227.211" r="0.277"/>
	</g>
	<g>
		<g>
			<g>
				<g>
					<g>
						<path fill="#03285D" d="M204.274,39.879c-8.914,10.723-4.926,21.227,8.909,23.462c13.834,2.235,32.274-4.645,41.188-15.368
							c8.914-10.722,4.926-21.227-8.909-23.462C231.628,22.277,213.188,29.157,204.274,39.879z"/>
					</g>
				</g>
				<linearGradient id="SVGID_5_" gradientUnits="userSpaceOnUse" x1="214.4697" y1="28.5762" x2="243.7511" y2="57.8576">
					<stop  offset="0" style="stop-color:#0C3B65"/>
					<stop  offset="1" style="stop-color:#09345F"/>
				</linearGradient>
				<path fill="url(#SVGID_5_)" d="M204.062,39.169c-8.914,10.723-4.926,21.227,8.909,23.462
					c13.834,2.235,32.274-4.645,41.188-15.368c8.914-10.722,4.926-21.227-8.909-23.462
					C231.415,21.567,212.975,28.447,204.062,39.169z"/>
				<linearGradient id="SVGID_6_" gradientUnits="userSpaceOnUse" x1="214.2559" y1="27.8667" x2="243.5379" y2="57.1488">
					<stop  offset="0" style="stop-color:#144E6C"/>
					<stop  offset="1" style="stop-color:#104162"/>
				</linearGradient>
				<path fill="url(#SVGID_6_)" d="M203.849,38.46c-8.914,10.722-4.926,21.227,8.909,23.461
					c13.834,2.235,32.274-4.645,41.188-15.367c8.914-10.723,4.926-21.227-8.909-23.462C231.202,20.857,212.762,27.737,203.849,38.46
					z"/>
				<linearGradient id="SVGID_7_" gradientUnits="userSpaceOnUse" x1="214.043" y1="27.1558" x2="243.3257" y2="56.4385">
					<stop  offset="0" style="stop-color:#1D6174"/>
					<stop  offset="1" style="stop-color:#164D64"/>
				</linearGradient>
				<path fill="url(#SVGID_7_)" d="M203.635,37.75c-8.913,10.723-4.925,21.227,8.91,23.462c13.834,2.236,32.273-4.645,41.188-15.367
					c8.914-10.722,4.926-21.227-8.909-23.462C230.989,20.148,212.549,27.027,203.635,37.75z"/>
				<linearGradient id="SVGID_8_" gradientUnits="userSpaceOnUse" x1="213.8311" y1="26.4478" x2="243.1125" y2="55.7292">
					<stop  offset="0" style="stop-color:#26747C"/>
					<stop  offset="1" style="stop-color:#1D5966"/>
				</linearGradient>
				<path fill="url(#SVGID_8_)" d="M203.423,37.041c-8.914,10.723-4.925,21.227,8.909,23.462s32.274-4.645,41.188-15.368
					c8.914-10.722,4.926-21.227-8.909-23.462C230.776,19.438,212.336,26.318,203.423,37.041z"/>
				<linearGradient id="SVGID_9_" gradientUnits="userSpaceOnUse" x1="213.6182" y1="25.7378" x2="242.9003" y2="55.0199">
					<stop  offset="0" style="stop-color:#2E8783"/>
					<stop  offset="1" style="stop-color:#236569"/>
				</linearGradient>
				<path fill="url(#SVGID_9_)" d="M203.21,36.331c-8.913,10.723-4.925,21.227,8.909,23.462
					c13.834,2.236,32.274-4.645,41.188-15.367c8.914-10.722,4.926-21.227-8.908-23.462C230.563,18.729,212.123,25.608,203.21,36.331
					z"/>
				<linearGradient id="SVGID_10_" gradientUnits="userSpaceOnUse" x1="213.4053" y1="25.0283" x2="242.6867" y2="54.3097">
					<stop  offset="0" style="stop-color:#379A8B"/>
					<stop  offset="1" style="stop-color:#2A726B"/>
				</linearGradient>
				<path fill="url(#SVGID_10_)" d="M202.997,35.621c-8.914,10.723-4.925,21.227,8.909,23.463
					c13.834,2.235,32.274-4.646,41.188-15.368c8.914-10.722,4.926-21.227-8.909-23.462C230.351,18.02,211.91,24.899,202.997,35.621z
					"/>
				<linearGradient id="SVGID_11_" gradientUnits="userSpaceOnUse" x1="213.1924" y1="24.3188" x2="242.4738" y2="53.6003">
					<stop  offset="0" style="stop-color:#3FAD92"/>
					<stop  offset="1" style="stop-color:#307E6E"/>
				</linearGradient>
				<path fill="url(#SVGID_11_)" d="M202.784,34.912c-8.914,10.723-4.925,21.227,8.909,23.462s32.274-4.646,41.188-15.368
					c8.914-10.722,4.926-21.227-8.909-23.462C230.138,17.31,211.697,24.189,202.784,34.912z"/>
				<linearGradient id="SVGID_12_" gradientUnits="userSpaceOnUse" x1="212.9795" y1="23.6089" x2="242.2616" y2="52.891">
					<stop  offset="0" style="stop-color:#48C09A"/>
					<stop  offset="1" style="stop-color:#378A70"/>
				</linearGradient>
				<path fill="url(#SVGID_12_)" d="M202.571,34.202c-8.914,10.723-4.925,21.227,8.909,23.462
					c13.834,2.236,32.274-4.645,41.188-15.367c8.914-10.723,4.926-21.227-8.909-23.463C229.925,16.6,211.484,23.479,202.571,34.202z
					"/>
				<linearGradient id="SVGID_13_" gradientUnits="userSpaceOnUse" x1="212.7666" y1="22.8994" x2="242.048" y2="52.1808">
					<stop  offset="0" style="stop-color:#51D3A2"/>
					<stop  offset="1" style="stop-color:#3D9672"/>
				</linearGradient>
				<path fill="url(#SVGID_13_)" d="M202.358,33.492c-8.914,10.723-4.925,21.227,8.909,23.463
					c13.834,2.235,32.274-4.646,41.188-15.368c8.914-10.722,4.926-21.227-8.909-23.462C229.712,15.89,211.271,22.77,202.358,33.492z
					"/>
				<linearGradient id="SVGID_14_" gradientUnits="userSpaceOnUse" x1="212.5537" y1="22.1899" x2="241.8358" y2="51.472">
					<stop  offset="0" style="stop-color:#59E6A9"/>
					<stop  offset="1" style="stop-color:#44A375"/>
				</linearGradient>
				<path fill="url(#SVGID_14_)" d="M202.146,32.783c-8.914,10.722-4.925,21.227,8.909,23.462s32.274-4.646,41.188-15.367
					c8.914-10.723,4.926-21.227-8.909-23.463C229.499,15.181,211.059,22.06,202.146,32.783z"/>
				
					<linearGradient id="SVGID_15_" gradientUnits="userSpaceOnUse" x1="182.543" y1="-13.8677" x2="218.2484" y2="21.8378" gradientTransform="matrix(0.6393 -0.769 0.9921 0.1603 94.9154 189.5866)">
					<stop  offset="0" style="stop-color:#62F9B1"/>
					<stop  offset="1" style="stop-color:#4AAF77"/>
				</linearGradient>
				<path fill="url(#SVGID_15_)" d="M201.933,32.073c-8.914,10.723-4.925,21.227,8.909,23.462
					c13.834,2.235,32.274-4.646,41.188-15.368c8.914-10.722,4.926-21.227-8.909-23.462
					C229.286,14.471,210.846,21.351,201.933,32.073z"/>
			</g>
		</g>
		<g>
			<path fill="#F7F7E1" d="M236.762,29.363c0.875,0.573,0.854,1.641,0.294,2.637c-0.537,0.952-1.541,1.646-2.606,2.436
				c-0.95,0.704-2.027,1.357-3.125,1.948c-2.199,1.183-4.606,2.122-7.039,2.797c-0.744,0.207-1.489,0.388-2.234,0.546
				c-0.986,0.21-1.98,0.377-2.914,0.398c-0.388,0.008-0.762-0.014-1.113-0.067c-1.232-0.187-2.166-0.748-2.331-1.625
				c-0.095-0.508,0.24-1.183,1.001-1.613c0.828-0.468,2.031-0.585,2.919-0.721c0.694-0.106,1.578-0.211,2.113-0.035
				c0.534,0.177,0.734,0.627,0.937,0.992c0.136,0.247,0.367,0.318,0.828,0.206c2.896-0.634,5.533-1.738,7.9-3.352
				c0.323-0.219,0.439-0.412,0.321-0.607c-0.231-0.382-0.93-0.834-0.788-1.343c0.187-0.663,1.194-1.266,2.026-1.72
				c0.773-0.422,1.903-1.157,2.782-1.163C236.156,29.073,236.503,29.193,236.762,29.363z"/>
			<path fill="#F7F7E1" d="M237.269,21.959c-8.967-1.449-20.961,3.026-26.738,9.976s-3.183,13.782,5.784,15.231
				c2.741,0.443,5.896,0.334,9.169-0.312l7.286,3.252l3.332-7.244c2.823-1.636,5.216-3.587,6.95-5.673
				C248.828,30.24,246.234,23.407,237.269,21.959z M239.979,36.692c-1.52,1.827-3.664,3.528-6.202,4.917l-0.691,0.378l-1.861,4.047
				l-4.068-1.815l-0.781,0.174c-2.885,0.643-5.679,0.778-8.079,0.39c-7.271-1.175-9.376-6.716-4.69-12.352
				c4.685-5.636,14.411-9.265,21.684-8.09C242.56,25.516,244.663,31.057,239.979,36.692z"/>
		</g>
	</g>
	<g>
		<g>
			<path fill="#03285D" d="M243.818,270.469c-12.289,6.589-14.162,20.467-4.183,30.997c9.979,10.531,28.03,13.727,40.319,7.138
				s14.161-20.467,4.182-30.997S256.106,263.88,243.818,270.469z"/>
			<path fill="#0D3969" d="M244.031,269.759c-12.289,6.589-14.162,20.467-4.183,30.997c9.979,10.531,28.03,13.727,40.319,7.138
				s14.161-20.467,4.182-30.997S256.319,263.17,244.031,269.759z"/>
			<path fill="#184A74" d="M244.244,269.049c-12.289,6.59-14.162,20.467-4.183,30.998c9.979,10.531,28.03,13.727,40.319,7.137
				c12.289-6.588,14.161-20.466,4.182-30.996S256.532,262.461,244.244,269.049z"/>
			<path fill="#225C80" d="M244.457,268.34c-12.289,6.588-14.162,20.467-4.184,30.997c9.979,10.531,28.031,13.727,40.32,7.138
				s14.161-20.467,4.182-30.998C274.796,264.947,256.745,261.751,244.457,268.34z"/>
			<path fill="#2D6D8C" d="M244.67,267.631c-12.289,6.588-14.162,20.466-4.183,30.997c9.979,10.53,28.03,13.726,40.319,7.138
				c12.289-6.59,14.161-20.467,4.182-30.998C275.009,264.237,256.958,261.041,244.67,267.631z"/>
			<path fill="#377E98" d="M244.883,266.921c-12.289,6.589-14.162,20.467-4.183,30.997c9.979,10.531,28.03,13.727,40.319,7.138
				s14.161-20.467,4.182-30.997S257.172,260.332,244.883,266.921z"/>
			<path fill="#428FA3" d="M245.096,266.211c-12.289,6.588-14.162,20.467-4.183,30.998c9.979,10.53,28.03,13.726,40.319,7.137
				s14.161-20.467,4.182-30.997S257.384,259.622,245.096,266.211z"/>
			<path fill="#4CA0AF" d="M245.309,265.502c-12.289,6.588-14.162,20.466-4.183,30.997c9.979,10.53,28.03,13.726,40.319,7.138
				c12.289-6.59,14.161-20.467,4.182-30.998C275.647,262.108,257.597,258.912,245.309,265.502z"/>
			<path fill="#57B1BB" d="M245.521,264.792c-12.289,6.588-14.162,20.466-4.183,30.997c9.979,10.53,28.03,13.727,40.319,7.138
				s14.161-20.467,4.182-30.997C275.86,261.398,257.81,258.203,245.521,264.792z"/>
			<path fill="#61C3C7" d="M245.734,264.082c-12.289,6.588-14.162,20.466-4.183,30.997c9.979,10.531,28.03,13.728,40.319,7.138
				c12.289-6.589,14.161-20.467,4.182-30.997S258.022,257.493,245.734,264.082z"/>
			<path fill="#6CD4D2" d="M245.947,263.373c-12.289,6.588-14.162,20.466-4.183,30.997c9.979,10.53,28.03,13.726,40.319,7.138
				c12.289-6.589,14.161-20.467,4.182-30.997C276.286,259.979,258.235,256.784,245.947,263.373z"/>
			<path fill="#76E5DE" d="M246.16,262.663c-12.289,6.588-14.162,20.466-4.183,30.997c9.979,10.53,28.03,13.727,40.319,7.138
				s14.161-20.467,4.182-30.997C276.499,259.27,258.448,256.074,246.16,262.663z"/>
		</g>
		
			<linearGradient id="SVGID_16_" gradientUnits="userSpaceOnUse" x1="257.6377" y1="250.5811" x2="275.0985" y2="268.0419" gradientTransform="matrix(0.8813 -0.4725 0.7157 0.7552 -155.5928 210.7328)">
			<stop  offset="0" style="stop-color:#3C5A99"/>
			<stop  offset="1" style="stop-color:#2B1E99"/>
		</linearGradient>
		<path fill="url(#SVGID_16_)" d="M262.84,269.904c0.16,0.169,0.129,0.39-0.066,0.495l-2.827,1.517
			c-0.694,0.372-0.8,1.155-0.236,1.75l2.404,2.537l4.021-2.157c0.207-0.111,0.516-0.046,0.666,0.141l3.036,3.766
			c0.134,0.166,0.094,0.369-0.09,0.468l-3.67,1.967l11.247,11.869c0.16,0.168,0.13,0.39-0.065,0.494l-5.062,2.714
			c-0.196,0.105-0.484,0.054-0.644-0.113l-11.066-11.679l-0.181-0.19l-2.529,1.356c-0.196,0.105-0.484,0.055-0.644-0.113
			l-3.389-3.577c-0.159-0.167-0.13-0.389,0.066-0.493l2.531-1.357l-3.268-3.447c-2.277-2.403-1.851-5.57,0.954-7.073l4.777-2.562
			c0.197-0.104,0.484-0.054,0.644,0.114L262.84,269.904z"/>
	</g>
	<g>
		<g>
			<path fill="#03285D" d="M328.559,152.909c-11.308-8.159-29.78-6.056-41.26,4.698s-11.62,26.085-0.313,34.245
				c11.307,8.159,29.779,6.056,41.26-4.698C339.726,176.399,339.865,161.068,328.559,152.909z"/>
			<linearGradient id="SVGID_17_" gradientUnits="userSpaceOnUse" x1="289.7822" y1="154.0342" x2="325.0547" y2="189.3067">
				<stop  offset="0" style="stop-color:#032F65"/>
				<stop  offset="1" style="stop-color:#032B69"/>
			</linearGradient>
			<path fill="url(#SVGID_17_)" d="M328.204,152.199c-11.308-8.159-29.781-6.055-41.261,4.698
				c-11.479,10.753-11.619,26.085-0.312,34.244c11.307,8.159,29.778,6.056,41.26-4.698
				C339.371,175.689,339.511,160.358,328.204,152.199z"/>
			<linearGradient id="SVGID_18_" gradientUnits="userSpaceOnUse" x1="289.4268" y1="153.3252" x2="324.6992" y2="188.5977">
				<stop  offset="0" style="stop-color:#02376D"/>
				<stop  offset="1" style="stop-color:#022D76"/>
			</linearGradient>
			<path fill="url(#SVGID_18_)" d="M327.849,151.49c-11.308-8.159-29.78-6.056-41.26,4.698
				c-11.479,10.754-11.62,26.086-0.313,34.245c11.307,8.159,29.78,6.056,41.261-4.698
				C339.016,174.98,339.155,159.648,327.849,151.49z"/>
			<linearGradient id="SVGID_19_" gradientUnits="userSpaceOnUse" x1="289.0732" y1="152.6162" x2="324.3443" y2="187.8873">
				<stop  offset="0" style="stop-color:#023E75"/>
				<stop  offset="1" style="stop-color:#023082"/>
			</linearGradient>
			<path fill="url(#SVGID_19_)" d="M327.494,150.78c-11.308-8.159-29.78-6.056-41.26,4.698c-11.48,10.753-11.62,26.085-0.313,34.244
				c11.307,8.16,29.779,6.056,41.26-4.697C338.661,174.271,338.801,158.939,327.494,150.78z"/>
			<linearGradient id="SVGID_20_" gradientUnits="userSpaceOnUse" x1="288.7188" y1="151.9067" x2="323.9891" y2="187.1771">
				<stop  offset="0" style="stop-color:#02467D"/>
				<stop  offset="1" style="stop-color:#02338E"/>
			</linearGradient>
			<path fill="url(#SVGID_20_)" d="M327.14,150.071c-11.308-8.16-29.78-6.056-41.26,4.698s-11.62,26.086-0.313,34.244
				c11.307,8.159,29.778,6.056,41.259-4.698S338.446,158.229,327.14,150.071z"/>
			<linearGradient id="SVGID_21_" gradientUnits="userSpaceOnUse" x1="288.3623" y1="151.1963" x2="323.6348" y2="186.4688">
				<stop  offset="0" style="stop-color:#024D85"/>
				<stop  offset="1" style="stop-color:#02369B"/>
			</linearGradient>
			<path fill="url(#SVGID_21_)" d="M326.784,149.361c-11.307-8.159-29.78-6.056-41.26,4.698
				c-11.479,10.753-11.619,26.085-0.313,34.243c11.308,8.16,29.779,6.057,41.261-4.697
				C337.951,172.852,338.092,157.52,326.784,149.361z"/>
			<linearGradient id="SVGID_22_" gradientUnits="userSpaceOnUse" x1="288.0088" y1="150.4878" x2="323.2799" y2="185.7589">
				<stop  offset="0" style="stop-color:#01558D"/>
				<stop  offset="1" style="stop-color:#0138A7"/>
			</linearGradient>
			<path fill="url(#SVGID_22_)" d="M326.43,148.651c-11.308-8.159-29.78-6.056-41.26,4.698
				c-11.479,10.753-11.62,26.085-0.313,34.244c11.307,8.159,29.779,6.055,41.26-4.698
				C337.596,172.142,337.736,156.81,326.43,148.651z"/>
			<linearGradient id="SVGID_23_" gradientUnits="userSpaceOnUse" x1="287.6523" y1="149.7773" x2="322.9234" y2="185.0484">
				<stop  offset="0" style="stop-color:#015C95"/>
				<stop  offset="1" style="stop-color:#013BB4"/>
			</linearGradient>
			<path fill="url(#SVGID_23_)" d="M326.074,147.941c-11.307-8.159-29.779-6.056-41.26,4.698
				c-11.479,10.753-11.619,26.086-0.313,34.244c11.308,8.159,29.779,6.056,41.26-4.698S337.382,156.101,326.074,147.941z"/>
			<linearGradient id="SVGID_24_" gradientUnits="userSpaceOnUse" x1="287.2988" y1="149.0684" x2="322.5699" y2="184.3394">
				<stop  offset="0" style="stop-color:#01649D"/>
				<stop  offset="1" style="stop-color:#013EC0"/>
			</linearGradient>
			<path fill="url(#SVGID_24_)" d="M325.72,147.232c-11.308-8.16-29.78-6.056-41.26,4.697
				c-11.479,10.754-11.619,26.086-0.313,34.244c11.308,8.16,29.779,6.056,41.26-4.697
				C336.887,170.723,337.027,155.391,325.72,147.232z"/>
			<linearGradient id="SVGID_25_" gradientUnits="userSpaceOnUse" x1="286.9443" y1="148.3584" x2="322.2154" y2="183.6295">
				<stop  offset="0" style="stop-color:#016BA5"/>
				<stop  offset="1" style="stop-color:#0141CC"/>
			</linearGradient>
			<path fill="url(#SVGID_25_)" d="M325.365,146.522c-11.308-8.159-29.78-6.056-41.26,4.698
				c-11.479,10.753-11.619,26.085-0.313,34.244s29.779,6.056,41.26-4.697C336.532,170.013,336.672,154.682,325.365,146.522z"/>
			<linearGradient id="SVGID_26_" gradientUnits="userSpaceOnUse" x1="286.5879" y1="147.6484" x2="321.8604" y2="182.9209">
				<stop  offset="0" style="stop-color:#0073AD"/>
				<stop  offset="1" style="stop-color:#0043D9"/>
			</linearGradient>
			<path fill="url(#SVGID_26_)" d="M325.01,145.813c-11.307-8.159-29.78-6.056-41.26,4.698s-11.619,26.086-0.313,34.244
				c11.308,8.16,29.779,6.056,41.261-4.697C336.177,169.303,336.317,153.972,325.01,145.813z"/>
			
				<linearGradient id="SVGID_27_" gradientUnits="userSpaceOnUse" x1="313.7305" y1="172.2734" x2="349.4373" y2="207.9803" gradientTransform="matrix(0.8109 0.5851 -0.8233 0.7712 191.5187 -176.0613)">
				<stop  offset="0" style="stop-color:#007AB5"/>
				<stop  offset="1" style="stop-color:#0046E5"/>
			</linearGradient>
			<path fill="url(#SVGID_27_)" d="M324.655,145.103c-11.308-8.159-29.78-6.056-41.26,4.698
				c-11.479,10.753-11.619,26.085-0.313,34.244c11.308,8.16,29.779,6.056,41.26-4.697
				C335.822,168.594,335.963,153.262,324.655,145.103z"/>
		</g>
		<path fill="#F7F7E1" d="M287.692,170.366l-4.481-3.234l14.615-13.691l4.481,3.233L287.692,170.366z M302.063,153.189
			c-1.438-1.037-1.416-2.982,0.038-4.344c1.452-1.36,3.793-1.628,5.229-0.591c1.434,1.034,1.414,2.978-0.037,4.337
			C305.839,153.954,303.495,154.224,302.063,153.189z M304.453,182.46l-4.471-3.226l7.105-6.657
			c1.696-1.588,3.844-3.654,1.551-5.308c-2.33-1.681-4.531-0.208-6.437,1.578l-7.23,6.772l-4.472-3.228l14.615-13.691l4.293,3.097
			l-2,1.873l0.059,0.042c1.749-0.646,4.419-0.727,6.599,0.846c4.53,3.269,2.341,6.706-1.596,10.394L304.453,182.46z"/>
	</g>
	<g>
		<g>
			<g>
				<g>
					<g>
						<g>
							<g>
								<path fill="#03285D" d="M102.917,53.204c-10.106-7.543-26.743-7.721-37.158-0.396S55.094,72.187,65.2,79.73
									c10.107,7.544,26.743,7.721,37.159,0.396C112.774,72.802,113.024,60.748,102.917,53.204z"/>
							</g>
						</g>
					</g>
				</g>
				<path fill="#192D5E" d="M102.988,52.494c-10.106-7.543-26.743-7.721-37.158-0.396s-10.666,19.378-0.559,26.922
					c10.107,7.543,26.743,7.721,37.159,0.396C112.845,72.092,113.095,60.038,102.988,52.494z"/>
				<path fill="#2F335E" d="M103.06,51.785c-10.106-7.544-26.743-7.721-37.158-0.396c-10.416,7.325-10.666,19.379-0.56,26.922
					c10.107,7.544,26.743,7.721,37.16,0.396C112.916,71.382,113.166,59.329,103.06,51.785z"/>
				<path fill="#46385F" d="M103.13,51.075c-10.106-7.544-26.743-7.721-37.159-0.396c-10.415,7.325-10.666,19.378-0.559,26.921
					c10.106,7.544,26.743,7.722,37.159,0.396C112.987,70.672,113.237,58.619,103.13,51.075z"/>
				<path fill="#5C3D5F" d="M103.202,50.366c-10.107-7.543-26.743-7.721-37.159-0.396c-10.416,7.325-10.666,19.378-0.559,26.922
					c10.106,7.544,26.743,7.721,37.159,0.396C113.059,69.963,113.309,57.91,103.202,50.366z"/>
				<path fill="#724360" d="M103.273,49.656c-10.107-7.543-26.743-7.721-37.159-0.396s-10.666,19.378-0.559,26.922
					c10.106,7.543,26.743,7.721,37.159,0.396C113.13,69.254,113.38,57.2,103.273,49.656z"/>
				<path fill="#884860" d="M103.344,48.946c-10.106-7.544-26.743-7.721-37.158-0.396c-10.416,7.325-10.666,19.378-0.56,26.922
					s26.743,7.721,37.159,0.396C113.2,68.544,113.45,56.49,103.344,48.946z"/>
				<path fill="#9E4E61" d="M103.414,48.237c-10.106-7.543-26.742-7.721-37.158-0.396C55.84,55.166,55.59,67.219,65.697,74.763
					c10.106,7.544,26.743,7.721,37.158,0.396C113.271,67.834,113.521,55.78,103.414,48.237z"/>
				<path fill="#B45361" d="M103.485,47.527c-10.106-7.544-26.743-7.721-37.158-0.396c-10.416,7.325-10.666,19.378-0.56,26.922
					c10.107,7.544,26.743,7.721,37.159,0.396C113.342,67.125,113.592,55.071,103.485,47.527z"/>
				<path fill="#CB5862" d="M103.556,46.817c-10.106-7.543-26.743-7.721-37.158-0.396C55.982,53.746,55.732,65.8,65.839,73.343
					c10.106,7.543,26.743,7.721,37.158,0.396S113.664,54.361,103.556,46.817z"/>
				<path fill="#E15E62" d="M103.627,46.108c-10.107-7.544-26.743-7.722-37.158-0.396C56.053,53.037,55.803,65.09,65.91,72.634
					c10.106,7.544,26.743,7.721,37.159,0.396C113.484,65.705,113.734,53.651,103.627,46.108z"/>
				<path fill="#F76363" d="M103.698,45.398c-10.106-7.544-26.743-7.721-37.158-0.396c-10.416,7.325-10.666,19.378-0.559,26.922
					c10.107,7.543,26.743,7.721,37.159,0.396S113.805,52.942,103.698,45.398z"/>
			</g>
		</g>
		<g>
			<g>
				<path fill="#F7F7E1" d="M88.159,54.725c-2.109-1.574-5.594-1.611-7.768-0.083c-2.173,1.529-2.226,4.053-0.117,5.627
					c2.109,1.575,5.594,1.612,7.768,0.083C90.216,58.824,90.269,56.299,88.159,54.725z"/>
				<path fill="#F7F7E1" d="M99.102,53.902l-9.682-7.226c-2.758-2.059-7.315-2.108-10.158-0.108l-9.978,7.017
					c-2.843,1.999-2.912,5.3-0.153,7.359l9.682,7.227c2.759,2.059,7.315,2.107,10.159,0.108l9.978-7.017
					C101.792,59.262,101.861,55.961,99.102,53.902z M78.063,61.826c-3.293-2.458-3.211-6.399,0.182-8.786
					c3.394-2.386,8.833-2.328,12.126,0.13c3.293,2.458,3.211,6.399-0.182,8.785C86.795,64.341,81.355,64.283,78.063,61.826z
					 M95.64,58.626c-0.785-0.586-0.766-1.522,0.043-2.091c0.81-0.569,2.102-0.555,2.887,0.031s0.766,1.522-0.043,2.091
					C97.718,59.226,96.425,59.212,95.64,58.626z"/>
			</g>
		</g>
	</g>
	<g>
		<g>
			<path fill="#03285D" d="M35.721,175.447c0.039-0.009,0.021-0.015,0.008-0.012C35.779,175.394,36.169,175.341,35.721,175.447z
				 M34.768,175.649C34.733,175.66,34.308,175.758,34.768,175.649L34.768,175.649z M16.516,144.872
				c-12.471,2.971-15.465,14.104-6.687,24.866c8.777,10.763,26.002,17.08,38.473,14.109c12.47-2.971,15.464-14.104,6.687-24.866
				C46.211,148.218,28.986,141.901,16.516,144.872z"/>
			<linearGradient id="SVGID_28_" gradientUnits="userSpaceOnUse" x1="13.0181" y1="143.9048" x2="52.3668" y2="183.2535">
				<stop  offset="0" style="stop-color:#07376C"/>
				<stop  offset="1" style="stop-color:#07306C"/>
			</linearGradient>
			<path fill="url(#SVGID_28_)" d="M36.004,174.666c0.039-0.008,0.021-0.014,0.008-0.012
				C36.063,174.613,36.453,174.561,36.004,174.666z M35.051,174.868C35.017,174.879,34.592,174.977,35.051,174.868L35.051,174.868z
				 M16.799,144.091c-12.47,2.971-15.464,14.104-6.687,24.866c8.777,10.763,26.002,17.079,38.472,14.108
				c12.471-2.971,15.464-14.103,6.687-24.866C46.495,147.437,29.27,141.12,16.799,144.091z"/>
			<linearGradient id="SVGID_29_" gradientUnits="userSpaceOnUse" x1="13.3018" y1="143.124" x2="52.6511" y2="182.4734">
				<stop  offset="0" style="stop-color:#0C467A"/>
				<stop  offset="1" style="stop-color:#0C387A"/>
			</linearGradient>
			<path fill="url(#SVGID_29_)" d="M36.288,173.886c0.039-0.009,0.021-0.015,0.008-0.012
				C36.347,173.832,36.737,173.779,36.288,173.886z M35.335,174.088C35.301,174.1,34.875,174.196,35.335,174.088L35.335,174.088z
				 M17.083,143.311c-12.471,2.971-15.465,14.104-6.687,24.866c8.777,10.763,26.002,17.079,38.473,14.108
				c12.47-2.971,15.464-14.104,6.687-24.866C46.778,146.656,29.554,140.339,17.083,143.311z"/>
			<linearGradient id="SVGID_30_" gradientUnits="userSpaceOnUse" x1="13.585" y1="142.3428" x2="52.9343" y2="181.6922">
				<stop  offset="0" style="stop-color:#105589"/>
				<stop  offset="1" style="stop-color:#104089"/>
			</linearGradient>
			<path fill="url(#SVGID_30_)" d="M36.572,173.105c0.039-0.01,0.021-0.015,0.008-0.012
				C36.63,173.052,37.021,172.998,36.572,173.105z M35.619,173.307C35.584,173.318,35.159,173.416,35.619,173.307L35.619,173.307z
				 M17.367,142.529c-12.47,2.971-15.464,14.104-6.687,24.866c8.777,10.763,26.002,17.079,38.473,14.109
				c12.471-2.971,15.464-14.104,6.687-24.867C47.063,145.876,29.837,139.559,17.367,142.529z"/>
			<linearGradient id="SVGID_31_" gradientUnits="userSpaceOnUse" x1="13.8696" y1="141.563" x2="53.2183" y2="180.9117">
				<stop  offset="0" style="stop-color:#146498"/>
				<stop  offset="1" style="stop-color:#144898"/>
			</linearGradient>
			<path fill="url(#SVGID_31_)" d="M36.856,172.324c0.039-0.008,0.021-0.014,0.008-0.011
				C36.915,172.271,37.305,172.218,36.856,172.324z M35.903,172.526C35.869,172.537,35.443,172.636,35.903,172.526L35.903,172.526z
				 M17.65,141.75c-12.47,2.97-15.464,14.104-6.687,24.866c8.777,10.763,26.002,17.079,38.473,14.109
				c12.471-2.971,15.464-14.104,6.687-24.867C47.347,145.096,30.122,138.778,17.65,141.75z"/>
			<linearGradient id="SVGID_32_" gradientUnits="userSpaceOnUse" x1="14.1538" y1="140.7827" x2="53.5025" y2="180.1314">
				<stop  offset="0" style="stop-color:#1973A7"/>
				<stop  offset="1" style="stop-color:#1950A7"/>
			</linearGradient>
			<path fill="url(#SVGID_32_)" d="M37.141,171.545c0.038-0.01,0.021-0.015,0.008-0.012
				C37.199,171.491,37.588,171.438,37.141,171.545z M36.188,171.746C36.152,171.758,35.728,171.855,36.188,171.746L36.188,171.746z
				 M17.935,140.969c-12.47,2.971-15.465,14.104-6.687,24.866c8.777,10.763,26.002,17.079,38.473,14.108s15.464-14.103,6.687-24.866
				S30.405,137.998,17.935,140.969z"/>
			<linearGradient id="SVGID_33_" gradientUnits="userSpaceOnUse" x1="14.4375" y1="140.002" x2="53.7862" y2="179.3506">
				<stop  offset="0" style="stop-color:#1D81B5"/>
				<stop  offset="1" style="stop-color:#1D57B5"/>
			</linearGradient>
			<path fill="url(#SVGID_33_)" d="M37.424,170.764c0.039-0.009,0.021-0.015,0.008-0.012
				C37.482,170.71,37.872,170.657,37.424,170.764z M36.471,170.965C36.436,170.977,36.012,171.074,36.471,170.965L36.471,170.965z
				 M18.218,140.188c-12.47,2.971-15.464,14.104-6.687,24.866c8.777,10.763,26.003,17.08,38.473,14.109
				c12.471-2.971,15.464-14.104,6.688-24.866C47.914,143.534,30.689,137.218,18.218,140.188z"/>
			<linearGradient id="SVGID_34_" gradientUnits="userSpaceOnUse" x1="14.7212" y1="139.2212" x2="54.0699" y2="178.5699">
				<stop  offset="0" style="stop-color:#2290C4"/>
				<stop  offset="1" style="stop-color:#225FC4"/>
			</linearGradient>
			<path fill="url(#SVGID_34_)" d="M37.708,169.983c0.039-0.009,0.021-0.015,0.008-0.011
				C37.766,169.93,38.156,169.876,37.708,169.983z M36.755,170.185C36.72,170.196,36.295,170.294,36.755,170.185L36.755,170.185z
				 M18.502,139.407c-12.47,2.971-15.464,14.104-6.687,24.867c8.777,10.762,26.002,17.079,38.473,14.109
				c12.47-2.971,15.464-14.104,6.687-24.866C48.197,142.754,30.973,136.437,18.502,139.407z"/>
			<linearGradient id="SVGID_35_" gradientUnits="userSpaceOnUse" x1="15.0054" y1="138.4409" x2="54.3541" y2="177.7896">
				<stop  offset="0" style="stop-color:#269FD3"/>
				<stop  offset="1" style="stop-color:#2667D3"/>
			</linearGradient>
			<path fill="url(#SVGID_35_)" d="M37.992,169.202c0.039-0.009,0.021-0.014,0.008-0.012
				C38.05,169.149,38.44,169.096,37.992,169.202z M37.038,169.404C37.004,169.416,36.579,169.514,37.038,169.404L37.038,169.404z
				 M18.786,138.627c-12.471,2.971-15.464,14.104-6.687,24.866s26.002,17.079,38.473,14.108c12.47-2.971,15.464-14.104,6.687-24.866
				C48.481,141.973,31.257,135.656,18.786,138.627z"/>
			<linearGradient id="SVGID_36_" gradientUnits="userSpaceOnUse" x1="15.2891" y1="137.6602" x2="54.6378" y2="177.0089">
				<stop  offset="0" style="stop-color:#2AAEE2"/>
				<stop  offset="1" style="stop-color:#2A6FE2"/>
			</linearGradient>
			<path fill="url(#SVGID_36_)" d="M38.275,168.421c0.039-0.009,0.021-0.014,0.008-0.011
				C38.333,168.368,38.724,168.314,38.275,168.421z M37.323,168.624C37.288,168.635,36.863,168.733,37.323,168.624L37.323,168.624z
				 M19.07,137.847c-12.47,2.97-15.464,14.104-6.687,24.866c8.777,10.763,26.003,17.08,38.473,14.109
				c12.471-2.971,15.464-14.104,6.687-24.866C48.766,141.193,31.541,134.876,19.07,137.847z"/>
			<linearGradient id="SVGID_37_" gradientUnits="userSpaceOnUse" x1="15.5728" y1="136.8794" x2="54.9215" y2="176.2281">
				<stop  offset="0" style="stop-color:#2FBDF0"/>
				<stop  offset="1" style="stop-color:#2F77F0"/>
			</linearGradient>
			<path fill="url(#SVGID_37_)" d="M38.559,167.641c0.039-0.01,0.021-0.015,0.008-0.012
				C38.618,167.588,39.008,167.534,38.559,167.641z M37.606,167.843C37.571,167.854,37.146,167.953,37.606,167.843L37.606,167.843z
				 M19.354,137.065c-12.47,2.971-15.465,14.104-6.687,24.867c8.777,10.762,26.002,17.079,38.473,14.108s15.464-14.103,6.687-24.866
				C49.049,140.412,31.824,134.095,19.354,137.065z"/>
			
				<linearGradient id="SVGID_38_" gradientUnits="userSpaceOnUse" x1="4.6875" y1="144.7646" x2="37.5134" y2="177.5906" gradientTransform="matrix(0.9728 -0.2317 0.6847 0.8396 -95.355 25.3365)">
				<stop  offset="0" style="stop-color:#33CCFF"/>
				<stop  offset="1" style="stop-color:#337FFF"/>
			</linearGradient>
			<path fill="url(#SVGID_38_)" d="M38.843,166.86c0.039-0.009,0.021-0.014,0.008-0.012
				C38.901,166.807,39.292,166.753,38.843,166.86z M37.89,167.063C37.855,167.074,37.431,167.172,37.89,167.063L37.89,167.063z
				 M19.638,136.285c-12.47,2.971-15.464,14.104-6.687,24.866s26.002,17.079,38.473,14.108c12.471-2.971,15.464-14.104,6.687-24.866
				C49.333,139.631,32.108,133.314,19.638,136.285z"/>
		</g>
		<path fill="#F7F7E1" d="M38.563,166.39C38.528,166.401,38.104,166.5,38.563,166.39L38.563,166.39z M39.516,166.188
			c0.039-0.009,0.021-0.014,0.008-0.012C39.574,166.135,39.964,166.081,39.516,166.188z M43.93,144.309
			c0.051,0.063,0.172,0.213,0.165,0.418c-0.034,0.91-0.186,1.753-0.596,2.526c-0.059,0.112-0.202,0.249-0.075,0.404
			c3.235,3.967,5.292,8.208,4.284,11.878c-1.283,4.674-6.871,7.194-13.657,7.193c-1.314,0-2.666-0.117-4.052-0.338
			c-0.462-0.078-0.923-0.163-1.396-0.27c-0.128-0.038-0.232-0.076-0.192-0.129c0.044-0.046,0.096-0.062,0.377-0.089
			c1.699-0.244,3.169-0.837,4.304-1.649c0.623-0.446,1.989-1.37,1.952-2.166c-0.001-0.018,0.011-0.021,0.011-0.041
			c-0.242,0.007-0.448,0.057-0.681,0.075c-1.854-0.013-4.46-0.19-7.247-2.209c-0.167-0.117-0.163-0.199,0.017-0.211
			c1.341-0.217,1.749-0.386,2.123-0.575c-0.278,0.023-0.594,0.01-0.893-0.019c-2.466-0.175-5.221-1.474-6.923-3.182
			c-0.197-0.198-0.357-0.367-0.499-0.559c-0.095-0.134-0.062-0.191,0.131-0.15c1.364,0.208,2.571,0.046,2.649,0.008
			c-0.386-0.108-0.767-0.237-1.141-0.367c-2.81-0.978-5.752-3.626-5.827-5.694c-0.006-0.168,0.067-0.185,0.308-0.085
			c5.558,2.298,10.512,2.809,15.575,2.306c0.134-0.014,0.134-0.032,0.021-0.143c-0.688-0.668-1.26-1.347-1.626-2.083
			c-0.38-0.762-0.535-1.531-0.464-2.229c0.068-0.675,0.346-1.287,0.807-1.79c0.459-0.501,1.102-0.893,1.884-1.134
			c0.804-0.248,1.753-0.335,2.76-0.246c0.767,0.067,1.526,0.226,2.314,0.47c0.163,0.049,0.327,0.117,0.501,0.188
			c0.104,0.038,0.193,0.042,0.273-0.002c0.965-0.532,1.775-1.151,2.438-1.897c0.031-0.032,0.062-0.053,0.14-0.046
			c0.075,0.02,0.1,0.077,0.11,0.125c0.248,0.583,0.316,1.16,0.265,1.693c-0.034,0.35-0.121,1.215-0.52,1.389
			c0.841-0.366,1.647-0.808,2.25-1.363c0.077-0.072,0.063-0.091,0.114-0.028C43.913,144.288,43.921,144.298,43.93,144.309z"/>
	</g>
	<g>
		<g>
			<path fill="#03285D" d="M104.941,283.444c-12.9-5.292-30.66-1.384-39.667,8.73c-9.007,10.113-5.852,22.602,7.049,27.895
				c12.9,5.292,30.66,1.383,39.667-8.73C120.998,301.225,117.842,288.736,104.941,283.444z"/>
			<linearGradient id="SVGID_39_" gradientUnits="userSpaceOnUse" x1="71.9902" y1="284.5469" x2="104.9922" y2="317.5489">
				<stop  offset="0" style="stop-color:#1A2B5A"/>
				<stop  offset="1" style="stop-color:#15255A"/>
			</linearGradient>
			<path fill="url(#SVGID_39_)" d="M104.799,282.734c-12.9-5.292-30.66-1.384-39.667,8.73c-9.007,10.113-5.852,22.602,7.049,27.895
				c12.9,5.292,30.66,1.383,39.667-8.73C120.856,300.515,117.7,288.026,104.799,282.734z"/>
			<linearGradient id="SVGID_40_" gradientUnits="userSpaceOnUse" x1="71.8481" y1="283.8369" x2="104.8501" y2="316.8389">
				<stop  offset="0" style="stop-color:#302F58"/>
				<stop  offset="1" style="stop-color:#282258"/>
			</linearGradient>
			<path fill="url(#SVGID_40_)" d="M104.657,282.025c-12.899-5.293-30.659-1.385-39.667,8.73
				c-9.007,10.113-5.852,22.602,7.049,27.895c12.9,5.291,30.66,1.383,39.667-8.73C120.714,299.806,117.558,287.316,104.657,282.025z
				"/>
			<linearGradient id="SVGID_41_" gradientUnits="userSpaceOnUse" x1="71.7056" y1="283.127" x2="104.7076" y2="316.129">
				<stop  offset="0" style="stop-color:#473255"/>
				<stop  offset="1" style="stop-color:#3A1F55"/>
			</linearGradient>
			<path fill="url(#SVGID_41_)" d="M104.516,281.315c-12.9-5.292-30.66-1.384-39.667,8.729c-9.007,10.114-5.852,22.603,7.049,27.896
				c12.9,5.292,30.66,1.383,39.667-8.73C120.572,299.096,117.416,286.607,104.516,281.315z"/>
			<linearGradient id="SVGID_42_" gradientUnits="userSpaceOnUse" x1="71.5649" y1="282.418" x2="104.5669" y2="315.42">
				<stop  offset="0" style="stop-color:#5E3552"/>
				<stop  offset="1" style="stop-color:#4C1C52"/>
			</linearGradient>
			<path fill="url(#SVGID_42_)" d="M104.374,280.605c-12.9-5.292-30.66-1.384-39.667,8.73c-9.007,10.113-5.852,22.602,7.049,27.895
				c12.9,5.293,30.66,1.383,39.667-8.73C120.431,298.386,117.274,285.897,104.374,280.605z"/>
			<linearGradient id="SVGID_43_" gradientUnits="userSpaceOnUse" x1="71.4224" y1="281.708" x2="104.4244" y2="314.71">
				<stop  offset="0" style="stop-color:#74394F"/>
				<stop  offset="1" style="stop-color:#5F194F"/>
			</linearGradient>
			<path fill="url(#SVGID_43_)" d="M104.232,279.896c-12.9-5.292-30.66-1.384-39.667,8.73c-9.008,10.113-5.852,22.602,7.049,27.895
				c12.9,5.292,30.659,1.383,39.667-8.73C120.288,297.677,117.132,285.188,104.232,279.896z"/>
			<linearGradient id="SVGID_44_" gradientUnits="userSpaceOnUse" x1="71.2808" y1="280.999" x2="104.2828" y2="314.001">
				<stop  offset="0" style="stop-color:#8B3C4D"/>
				<stop  offset="1" style="stop-color:#71174D"/>
			</linearGradient>
			<path fill="url(#SVGID_44_)" d="M104.09,279.187c-12.9-5.292-30.66-1.384-39.667,8.73c-9.007,10.113-5.852,22.602,7.049,27.895
				c12.9,5.292,30.66,1.383,39.667-8.73C120.146,296.967,116.99,284.479,104.09,279.187z"/>
			<linearGradient id="SVGID_45_" gradientUnits="userSpaceOnUse" x1="71.1382" y1="280.2881" x2="104.1402" y2="313.2901">
				<stop  offset="0" style="stop-color:#A1404A"/>
				<stop  offset="1" style="stop-color:#84144A"/>
			</linearGradient>
			<path fill="url(#SVGID_45_)" d="M103.948,278.477c-12.9-5.292-30.66-1.384-39.667,8.73c-9.007,10.113-5.852,22.602,7.049,27.895
				s30.659,1.383,39.667-8.73C120.004,296.258,116.849,283.769,103.948,278.477z"/>
			<linearGradient id="SVGID_46_" gradientUnits="userSpaceOnUse" x1="70.9966" y1="279.5791" x2="103.9986" y2="312.5811">
				<stop  offset="0" style="stop-color:#B84347"/>
				<stop  offset="1" style="stop-color:#961147"/>
			</linearGradient>
			<path fill="url(#SVGID_46_)" d="M103.806,277.767c-12.899-5.292-30.659-1.384-39.667,8.73s-5.852,22.603,7.049,27.896
				c12.9,5.292,30.66,1.383,39.667-8.73C119.862,295.548,116.707,283.059,103.806,277.767z"/>
			<linearGradient id="SVGID_47_" gradientUnits="userSpaceOnUse" x1="70.854" y1="278.8691" x2="103.8574" y2="311.8725">
				<stop  offset="0" style="stop-color:#CF4644"/>
				<stop  offset="1" style="stop-color:#A80E44"/>
			</linearGradient>
			<path fill="url(#SVGID_47_)" d="M103.664,277.058c-12.9-5.293-30.66-1.384-39.667,8.729c-9.007,10.115-5.852,22.603,7.049,27.896
				c12.9,5.291,30.66,1.383,39.667-8.731S116.564,282.349,103.664,277.058z"/>
			<linearGradient id="SVGID_48_" gradientUnits="userSpaceOnUse" x1="70.7119" y1="278.1592" x2="103.7146" y2="311.1619">
				<stop  offset="0" style="stop-color:#E54A42"/>
				<stop  offset="1" style="stop-color:#BB0B42"/>
			</linearGradient>
			<path fill="url(#SVGID_48_)" d="M103.522,276.348c-12.9-5.292-30.66-1.384-39.667,8.73s-5.852,22.603,7.049,27.895
				c12.9,5.293,30.659,1.384,39.667-8.729C119.578,294.129,116.423,281.64,103.522,276.348z"/>
			
				<linearGradient id="SVGID_49_" gradientUnits="userSpaceOnUse" x1="54.4482" y1="277.6641" x2="90.1558" y2="313.3716" gradientTransform="matrix(0.9252 0.3795 -0.646 0.7253 211.0815 52.173)">
				<stop  offset="0" style="stop-color:#FC4D3F"/>
				<stop  offset="1" style="stop-color:#CD083F"/>
			</linearGradient>
			<path fill="url(#SVGID_49_)" d="M103.38,275.638c-12.9-5.292-30.66-1.384-39.667,8.73s-5.852,22.603,7.049,27.896
				c12.9,5.292,30.66,1.383,39.667-8.73C119.437,293.419,116.281,280.93,103.38,275.638z"/>
		</g>
		<path fill="#F7F7E1" d="M84.894,300.301c-2.564,0.842-5.109,0.987-7.627,0.551c-1.352-0.234-2.593-0.629-3.723-1.161
			c-2.005-0.944-3.445-2.241-4.27-3.901c-1.064-2.144-0.962-4.375,0.277-6.685c0.446-0.825,1.041-1.607,1.773-2.335
			c1.726-1.721,3.917-2.997,6.589-3.795c2.782-0.832,5.533-0.996,8.24-0.512c0.678,0.119,1.331,0.279,1.941,0.505
			c0.348,0.127,0.702,0.25,1.037,0.394c1.787,0.752,3.154,1.795,4.085,3.142c0.62,0.9,0.792,1.608,0.917,1.856
			c-1.778,0.393-3.505,0.772-5.252,1.157c-0.314-0.842-0.737-1.678-2.07-2.46c-3.011-1.765-7.539-1.169-10.405,0.967
			c-0.59,0.438-1.082,0.928-1.473,1.457c-1.585,2.149-1.317,4.558,0.524,6.128c0.584,0.496,1.301,0.874,2.117,1.156
			c1.16,0.399,2.41,0.6,3.782,0.488c2.342-0.193,4.027-1.318,4.321-1.649c-0.293-0.12-5.689-2.334-5.689-2.334s1.955-2.2,2.86-3.217
			c0.036-0.04,0.078-0.08,0.128-0.128c3.332,1.367,6.653,2.729,9.995,4.1C91.363,296.701,88.605,299.082,84.894,300.301z
			 M103.88,301.64l-0.075,0.083l-0.106-0.044l-3.601-1.477l-2.515,2.823l-0.073,0.083l-0.105-0.044l-2.689-1.103l-0.106-0.044
			l0.073-0.083l2.515-2.822l-3.601-1.478l-0.105-0.044l0.075-0.083l1.878-2.109l0.072-0.08l0.106,0.042l3.6,1.478l2.515-2.823
			l0.074-0.083l0.106,0.043l2.69,1.104l0.105,0.043l-0.074,0.083l-2.515,2.824l3.601,1.478l0.106,0.043l-0.072,0.082L103.88,301.64z
			"/>
	</g>
	<linearGradient id="SVGID_50_" gradientUnits="userSpaceOnUse" x1="303.4688" y1="108.1016" x2="311.0791" y2="108.1016">
		<stop  offset="0" style="stop-color:#F79151"/>
		<stop  offset="0.9866" style="stop-color:#F7F7E1"/>
	</linearGradient>
	<circle fill="url(#SVGID_50_)" cx="307.274" cy="108.102" r="3.805"/>
	<g>
		<linearGradient id="SVGID_51_" gradientUnits="userSpaceOnUse" x1="64.1621" y1="120.7852" x2="77.6919" y2="120.7852">
			<stop  offset="0" style="stop-color:#F79151"/>
			<stop  offset="0.9866" style="stop-color:#F7F7E1"/>
		</linearGradient>
		<circle fill="url(#SVGID_51_)" cx="70.927" cy="120.786" r="6.765"/>
		<linearGradient id="SVGID_52_" gradientUnits="userSpaceOnUse" x1="303.4688" y1="108.1016" x2="311.0791" y2="108.1016">
			<stop  offset="0" style="stop-color:#F79151"/>
			<stop  offset="0.9866" style="stop-color:#F7F7E1"/>
		</linearGradient>
		<circle fill="url(#SVGID_52_)" cx="307.274" cy="108.102" r="3.805"/>
		<linearGradient id="SVGID_53_" gradientUnits="userSpaceOnUse" x1="171.5537" y1="57.1533" x2="179.5869" y2="57.1533">
			<stop  offset="0" style="stop-color:#0E1879"/>
			<stop  offset="0.9866" style="stop-color:#76E5DE"/>
		</linearGradient>
		<circle fill="url(#SVGID_53_)" cx="175.57" cy="57.154" r="4.017"/>
		<linearGradient id="SVGID_54_" gradientUnits="userSpaceOnUse" x1="271.124" y1="209.8906" x2="286.5566" y2="209.8906">
			<stop  offset="0" style="stop-color:#0E1879"/>
			<stop  offset="0.9866" style="stop-color:#76E5DE"/>
		</linearGradient>
		<circle fill="url(#SVGID_54_)" cx="278.84" cy="209.891" r="7.716"/>
		<linearGradient id="SVGID_55_" gradientUnits="userSpaceOnUse" x1="185.9297" y1="294.1348" x2="203.6875" y2="294.1348">
			<stop  offset="0" style="stop-color:#F76363"/>
			<stop  offset="0.9866" style="stop-color:#52468A"/>
		</linearGradient>
		<circle fill="url(#SVGID_55_)" cx="194.809" cy="294.135" r="8.879"/>
		<linearGradient id="SVGID_56_" gradientUnits="userSpaceOnUse" x1="50.6328" y1="213.8027" x2="56.5518" y2="213.8027">
			<stop  offset="0" style="stop-color:#F76363"/>
			<stop  offset="0.9866" style="stop-color:#52468A"/>
		</linearGradient>
		<circle fill="url(#SVGID_56_)" cx="53.592" cy="213.803" r="2.959"/>
	</g>
</g>
</svg>
